<svg width="452" height="350" viewBox="0 0 452 350" fill="none" xmlns="http://www.w3.org/2000/svg">
<rect width="200" height="50" fill="#252525"/>
<rect x="1" y="1" width="198" height="48" stroke="#90CAF9" stroke-opacity="0.5" stroke-width="2"/>
<path d="M73.5576 32H70.9209V26.5156H65.7793V32H63.1426V19.2031H65.7793V24.3887H70.9209V19.2031H73.5576V32ZM75.3066 27.1572C75.3066 26.2139 75.4883 25.373 75.8516 24.6348C76.2148 23.8965 76.7363 23.3252 77.416 22.9209C78.1016 22.5166 78.8955 22.3145 79.7979 22.3145C81.0811 22.3145 82.127 22.707 82.9355 23.4922C83.75 24.2773 84.2041 25.3438 84.2979 26.6914L84.3154 27.3418C84.3154 28.8008 83.9082 29.9727 83.0938 30.8574C82.2793 31.7363 81.1865 32.1758 79.8154 32.1758C78.4443 32.1758 77.3486 31.7363 76.5283 30.8574C75.7139 29.9785 75.3066 28.7832 75.3066 27.2715V27.1572ZM77.8467 27.3418C77.8467 28.2441 78.0166 28.9355 78.3564 29.416C78.6963 29.8906 79.1826 30.1279 79.8154 30.1279C80.4307 30.1279 80.9111 29.8936 81.2568 29.4248C81.6025 28.9502 81.7754 28.1943 81.7754 27.1572C81.7754 26.2725 81.6025 25.5869 81.2568 25.1006C80.9111 24.6143 80.4248 24.3711 79.7979 24.3711C79.1768 24.3711 78.6963 24.6143 78.3564 25.1006C78.0166 25.5811 77.8467 26.3281 77.8467 27.3418ZM91.0303 29.3721C91.0303 29.0615 90.875 28.8184 90.5645 28.6426C90.2598 28.4609 89.7676 28.2998 89.0879 28.1592C86.8262 27.6846 85.6953 26.7236 85.6953 25.2764C85.6953 24.4326 86.0439 23.7295 86.7412 23.167C87.4443 22.5986 88.3613 22.3145 89.4922 22.3145C90.6992 22.3145 91.6631 22.5986 92.3838 23.167C93.1104 23.7354 93.4736 24.4736 93.4736 25.3818H90.9336C90.9336 25.0186 90.8164 24.7197 90.582 24.4854C90.3477 24.2451 89.9814 24.125 89.4834 24.125C89.0557 24.125 88.7246 24.2217 88.4902 24.415C88.2559 24.6084 88.1387 24.8545 88.1387 25.1533C88.1387 25.4346 88.2705 25.6631 88.5342 25.8389C88.8037 26.0088 89.2549 26.1582 89.8877 26.2871C90.5205 26.4102 91.0537 26.5508 91.4873 26.709C92.8291 27.2012 93.5 28.0537 93.5 29.2666C93.5 30.1338 93.1279 30.8369 92.3838 31.376C91.6396 31.9092 90.6787 32.1758 89.501 32.1758C88.7041 32.1758 87.9951 32.0352 87.374 31.7539C86.7588 31.4668 86.2754 31.0771 85.9238 30.585C85.5723 30.0869 85.3965 29.5508 85.3965 28.9766H87.8047C87.8281 29.4277 87.9951 29.7734 88.3057 30.0137C88.6162 30.2539 89.0322 30.374 89.5537 30.374C90.04 30.374 90.4062 30.2832 90.6523 30.1016C90.9043 29.9141 91.0303 29.6709 91.0303 29.3721ZM98.1846 20.1523V22.4902H99.8105V24.3535H98.1846V29.0996C98.1846 29.4512 98.252 29.7031 98.3867 29.8555C98.5215 30.0078 98.7793 30.084 99.1602 30.084C99.4414 30.084 99.6904 30.0635 99.9072 30.0225V31.9473C99.4092 32.0996 98.8965 32.1758 98.3691 32.1758C96.5879 32.1758 95.6797 31.2764 95.6445 29.4775V24.3535H94.2559V22.4902H95.6445V20.1523H98.1846ZM106.13 27.3154H104.029V32H101.393V19.2031H106.147C107.659 19.2031 108.825 19.54 109.646 20.2139C110.466 20.8877 110.876 21.8398 110.876 23.0703C110.876 23.9434 110.686 24.6729 110.305 25.2588C109.93 25.8389 109.358 26.3018 108.591 26.6475L111.359 31.877V32H108.529L106.13 27.3154ZM104.029 25.1797H106.156C106.818 25.1797 107.331 25.0127 107.694 24.6787C108.058 24.3389 108.239 23.873 108.239 23.2812C108.239 22.6777 108.066 22.2031 107.721 21.8574C107.381 21.5117 106.856 21.3389 106.147 21.3389H104.029V25.1797ZM112.326 27.1572C112.326 26.2139 112.508 25.373 112.871 24.6348C113.234 23.8965 113.756 23.3252 114.436 22.9209C115.121 22.5166 115.915 22.3145 116.817 22.3145C118.101 22.3145 119.146 22.707 119.955 23.4922C120.77 24.2773 121.224 25.3438 121.317 26.6914L121.335 27.3418C121.335 28.8008 120.928 29.9727 120.113 30.8574C119.299 31.7363 118.206 32.1758 116.835 32.1758C115.464 32.1758 114.368 31.7363 113.548 30.8574C112.733 29.9785 112.326 28.7832 112.326 27.2715V27.1572ZM114.866 27.3418C114.866 28.2441 115.036 28.9355 115.376 29.416C115.716 29.8906 116.202 30.1279 116.835 30.1279C117.45 30.1279 117.931 29.8936 118.276 29.4248C118.622 28.9502 118.795 28.1943 118.795 27.1572C118.795 26.2725 118.622 25.5869 118.276 25.1006C117.931 24.6143 117.444 24.3711 116.817 24.3711C116.196 24.3711 115.716 24.6143 115.376 25.1006C115.036 25.5811 114.866 26.3281 114.866 27.3418ZM122.504 27.1572C122.504 26.2139 122.686 25.373 123.049 24.6348C123.412 23.8965 123.934 23.3252 124.613 22.9209C125.299 22.5166 126.093 22.3145 126.995 22.3145C128.278 22.3145 129.324 22.707 130.133 23.4922C130.947 24.2773 131.401 25.3438 131.495 26.6914L131.513 27.3418C131.513 28.8008 131.105 29.9727 130.291 30.8574C129.477 31.7363 128.384 32.1758 127.013 32.1758C125.642 32.1758 124.546 31.7363 123.726 30.8574C122.911 29.9785 122.504 28.7832 122.504 27.2715V27.1572ZM125.044 27.3418C125.044 28.2441 125.214 28.9355 125.554 29.416C125.894 29.8906 126.38 30.1279 127.013 30.1279C127.628 30.1279 128.108 29.8936 128.454 29.4248C128.8 28.9502 128.973 28.1943 128.973 27.1572C128.973 26.2725 128.8 25.5869 128.454 25.1006C128.108 24.6143 127.622 24.3711 126.995 24.3711C126.374 24.3711 125.894 24.6143 125.554 25.1006C125.214 25.5811 125.044 26.3281 125.044 27.3418ZM136.118 20.1523V22.4902H137.744V24.3535H136.118V29.0996C136.118 29.4512 136.186 29.7031 136.32 29.8555C136.455 30.0078 136.713 30.084 137.094 30.084C137.375 30.084 137.624 30.0635 137.841 30.0225V31.9473C137.343 32.0996 136.83 32.1758 136.303 32.1758C134.521 32.1758 133.613 31.2764 133.578 29.4775V24.3535H132.189V22.4902H133.578V20.1523H136.118Z" fill="#F3F6F9"/>
<rect y="100" width="200" height="50" fill="#353535"/>
<rect x="1" y="101" width="198" height="48" stroke="#90CAF9" stroke-opacity="0.5" stroke-width="2"/>
<path d="M62.0322 126.568L67.042 128.335V130.796L59.4746 127.588V125.514L67.042 122.306V124.767L62.0322 126.568ZM79.3467 127.737C79.2471 129.114 78.7373 130.198 77.8174 130.989C76.9033 131.78 75.6963 132.176 74.1963 132.176C72.5557 132.176 71.2637 131.625 70.3203 130.523C69.3828 129.416 68.9141 127.898 68.9141 125.971V125.188C68.9141 123.958 69.1309 122.874 69.5645 121.937C69.998 120.999 70.6162 120.281 71.4189 119.783C72.2275 119.279 73.165 119.027 74.2314 119.027C75.708 119.027 76.8975 119.423 77.7998 120.214C78.7021 121.005 79.2236 122.115 79.3643 123.545H76.7275C76.6631 122.719 76.4316 122.121 76.0332 121.752C75.6406 121.377 75.04 121.189 74.2314 121.189C73.3525 121.189 72.6934 121.506 72.2539 122.139C71.8203 122.766 71.5977 123.741 71.5859 125.065V126.032C71.5859 127.415 71.7939 128.426 72.21 129.064C72.6318 129.703 73.2939 130.022 74.1963 130.022C75.0107 130.022 75.6172 129.838 76.0156 129.469C76.4199 129.094 76.6514 128.517 76.71 127.737H79.3467ZM80.5156 127.157C80.5156 126.214 80.6973 125.373 81.0605 124.635C81.4238 123.896 81.9453 123.325 82.625 122.921C83.3105 122.517 84.1045 122.314 85.0068 122.314C86.29 122.314 87.3359 122.707 88.1445 123.492C88.959 124.277 89.4131 125.344 89.5068 126.691L89.5244 127.342C89.5244 128.801 89.1172 129.973 88.3027 130.857C87.4883 131.736 86.3955 132.176 85.0244 132.176C83.6533 132.176 82.5576 131.736 81.7373 130.857C80.9229 129.979 80.5156 128.783 80.5156 127.271V127.157ZM83.0557 127.342C83.0557 128.244 83.2256 128.936 83.5654 129.416C83.9053 129.891 84.3916 130.128 85.0244 130.128C85.6396 130.128 86.1201 129.894 86.4658 129.425C86.8115 128.95 86.9844 128.194 86.9844 127.157C86.9844 126.272 86.8115 125.587 86.4658 125.101C86.1201 124.614 85.6338 124.371 85.0068 124.371C84.3857 124.371 83.9053 124.614 83.5654 125.101C83.2256 125.581 83.0557 126.328 83.0557 127.342ZM96.7842 131.033C96.1572 131.795 95.29 132.176 94.1826 132.176C93.1631 132.176 92.3838 131.883 91.8447 131.297C91.3115 130.711 91.0391 129.853 91.0273 128.722V122.49H93.5674V128.634C93.5674 129.624 94.0186 130.119 94.9209 130.119C95.7822 130.119 96.374 129.82 96.6963 129.223V122.49H99.2451V132H96.8545L96.7842 131.033ZM103.499 122.49L103.578 123.589C104.258 122.739 105.169 122.314 106.312 122.314C107.319 122.314 108.069 122.61 108.562 123.202C109.054 123.794 109.306 124.679 109.317 125.856V132H106.777V125.918C106.777 125.379 106.66 124.989 106.426 124.749C106.191 124.503 105.802 124.38 105.257 124.38C104.542 124.38 104.006 124.685 103.648 125.294V132H101.108V122.49H103.499ZM114.292 120.152V122.49H115.918V124.354H114.292V129.1C114.292 129.451 114.359 129.703 114.494 129.855C114.629 130.008 114.887 130.084 115.268 130.084C115.549 130.084 115.798 130.063 116.015 130.022V131.947C115.517 132.1 115.004 132.176 114.477 132.176C112.695 132.176 111.787 131.276 111.752 129.478V124.354H110.363V122.49H111.752V120.152H114.292ZM121.71 132.176C120.315 132.176 119.179 131.748 118.3 130.893C117.427 130.037 116.99 128.897 116.99 127.474V127.228C116.99 126.272 117.175 125.42 117.544 124.67C117.913 123.914 118.435 123.334 119.108 122.93C119.788 122.52 120.562 122.314 121.429 122.314C122.729 122.314 123.752 122.725 124.496 123.545C125.246 124.365 125.621 125.528 125.621 127.034V128.071H119.565C119.647 128.692 119.894 129.19 120.304 129.565C120.72 129.94 121.244 130.128 121.877 130.128C122.855 130.128 123.62 129.773 124.171 129.064L125.419 130.462C125.038 131.001 124.522 131.423 123.872 131.728C123.222 132.026 122.501 132.176 121.71 132.176ZM121.42 124.371C120.916 124.371 120.506 124.541 120.189 124.881C119.879 125.221 119.68 125.707 119.592 126.34H123.125V126.138C123.113 125.575 122.961 125.142 122.668 124.837C122.375 124.526 121.959 124.371 121.42 124.371ZM132.415 124.872C132.069 124.825 131.765 124.802 131.501 124.802C130.54 124.802 129.91 125.127 129.611 125.777V132H127.071V122.49H129.471L129.541 123.624C130.051 122.751 130.757 122.314 131.659 122.314C131.94 122.314 132.204 122.353 132.45 122.429L132.415 124.872ZM138.831 126.542L133.725 124.758V122.314L141.38 125.522V127.588L133.725 130.805V128.353L138.831 126.542Z" fill="#F3F6F9"/>
<path d="M379.997 80.5449L377.237 79.7627L377.756 78.1719L380.489 79.2705L380.313 76.2031H382.036L381.86 79.332L384.523 78.251L385.042 79.8594L382.229 80.6416L384.075 82.9795L382.678 83.9727L381.078 81.4062L379.496 83.8848L378.099 82.9355L379.997 80.5449Z" fill="#F3F6F9"/>
<rect y="300" width="200" height="50" fill="#353535"/>
<rect x="1" y="301" width="198" height="48" stroke="#90CAF9" stroke-opacity="0.5" stroke-width="2"/>
<path d="M67.0322 325.568L72.042 327.335V329.796L64.4746 326.588V324.514L72.042 321.306V323.767L67.0322 325.568ZM74.3008 331V318.203H78.7832C80.3359 318.203 81.5137 318.502 82.3164 319.1C83.1191 319.691 83.5205 320.562 83.5205 321.71C83.5205 322.337 83.3594 322.891 83.0371 323.371C82.7148 323.846 82.2666 324.194 81.6924 324.417C82.3486 324.581 82.8643 324.912 83.2393 325.41C83.6201 325.908 83.8105 326.518 83.8105 327.238C83.8105 328.469 83.418 329.4 82.6328 330.033C81.8477 330.666 80.7285 330.988 79.2754 331H74.3008ZM76.9375 325.428V328.882H79.1963C79.8174 328.882 80.3008 328.735 80.6465 328.442C80.998 328.144 81.1738 327.733 81.1738 327.212C81.1738 326.04 80.5674 325.445 79.3545 325.428H76.9375ZM76.9375 323.564H78.8887C80.2188 323.541 80.8838 323.011 80.8838 321.974C80.8838 321.394 80.7139 320.978 80.374 320.726C80.04 320.468 79.5098 320.339 78.7832 320.339H76.9375V323.564ZM91.3252 330.033C90.6982 330.795 89.8311 331.176 88.7236 331.176C87.7041 331.176 86.9248 330.883 86.3857 330.297C85.8525 329.711 85.5801 328.853 85.5684 327.722V321.49H88.1084V327.634C88.1084 328.624 88.5596 329.119 89.4619 329.119C90.3232 329.119 90.915 328.82 91.2373 328.223V321.49H93.7861V331H91.3955L91.3252 330.033ZM98.7432 319.152V321.49H100.369V323.354H98.7432V328.1C98.7432 328.451 98.8105 328.703 98.9453 328.855C99.0801 329.008 99.3379 329.084 99.7188 329.084C100 329.084 100.249 329.063 100.466 329.022V330.947C99.9678 331.1 99.4551 331.176 98.9277 331.176C97.1465 331.176 96.2383 330.276 96.2031 328.478V323.354H94.8145V321.49H96.2031V319.152H98.7432ZM104.825 319.152V321.49H106.451V323.354H104.825V328.1C104.825 328.451 104.893 328.703 105.027 328.855C105.162 329.008 105.42 329.084 105.801 329.084C106.082 329.084 106.331 329.063 106.548 329.022V330.947C106.05 331.1 105.537 331.176 105.01 331.176C103.229 331.176 102.32 330.276 102.285 328.478V323.354H100.896V321.49H102.285V319.152H104.825ZM107.207 326.157C107.207 325.214 107.389 324.373 107.752 323.635C108.115 322.896 108.637 322.325 109.316 321.921C110.002 321.517 110.796 321.314 111.698 321.314C112.981 321.314 114.027 321.707 114.836 322.492C115.65 323.277 116.104 324.344 116.198 325.691L116.216 326.342C116.216 327.801 115.809 328.973 114.994 329.857C114.18 330.736 113.087 331.176 111.716 331.176C110.345 331.176 109.249 330.736 108.429 329.857C107.614 328.979 107.207 327.783 107.207 326.271V326.157ZM109.747 326.342C109.747 327.244 109.917 327.936 110.257 328.416C110.597 328.891 111.083 329.128 111.716 329.128C112.331 329.128 112.812 328.894 113.157 328.425C113.503 327.95 113.676 327.194 113.676 326.157C113.676 325.272 113.503 324.587 113.157 324.101C112.812 323.614 112.325 323.371 111.698 323.371C111.077 323.371 110.597 323.614 110.257 324.101C109.917 324.581 109.747 325.328 109.747 326.342ZM120.118 321.49L120.197 322.589C120.877 321.739 121.788 321.314 122.931 321.314C123.938 321.314 124.688 321.61 125.181 322.202C125.673 322.794 125.925 323.679 125.937 324.856V331H123.396V324.918C123.396 324.379 123.279 323.989 123.045 323.749C122.811 323.503 122.421 323.38 121.876 323.38C121.161 323.38 120.625 323.685 120.268 324.294V331H117.728V321.49H120.118ZM133.056 325.542L127.949 323.758V321.314L135.604 324.522V326.588L127.949 329.805V327.353L133.056 325.542Z" fill="#F3F6F9"/>
<rect x="252" y="300" width="200" height="50" fill="#353535"/>
<rect x="253" y="301" width="198" height="48" stroke="#90CAF9" stroke-opacity="0.5" stroke-width="2"/>
<path d="M322.032 326.568L327.042 328.335V330.796L319.475 327.588V325.514L327.042 322.306V324.767L322.032 326.568ZM339.347 327.737C339.247 329.114 338.737 330.198 337.817 330.989C336.903 331.78 335.696 332.176 334.196 332.176C332.556 332.176 331.264 331.625 330.32 330.523C329.383 329.416 328.914 327.898 328.914 325.971V325.188C328.914 323.958 329.131 322.874 329.564 321.937C329.998 320.999 330.616 320.281 331.419 319.783C332.228 319.279 333.165 319.027 334.231 319.027C335.708 319.027 336.897 319.423 337.8 320.214C338.702 321.005 339.224 322.115 339.364 323.545H336.728C336.663 322.719 336.432 322.121 336.033 321.752C335.641 321.377 335.04 321.189 334.231 321.189C333.353 321.189 332.693 321.506 332.254 322.139C331.82 322.766 331.598 323.741 331.586 325.065V326.032C331.586 327.415 331.794 328.426 332.21 329.064C332.632 329.703 333.294 330.022 334.196 330.022C335.011 330.022 335.617 329.838 336.016 329.469C336.42 329.094 336.651 328.517 336.71 327.737H339.347ZM343.592 332H341.043V322.49H343.592V332ZM340.894 320.029C340.894 319.648 341.02 319.335 341.271 319.089C341.529 318.843 341.878 318.72 342.317 318.72C342.751 318.72 343.097 318.843 343.354 319.089C343.612 319.335 343.741 319.648 343.741 320.029C343.741 320.416 343.609 320.732 343.346 320.979C343.088 321.225 342.745 321.348 342.317 321.348C341.89 321.348 341.544 321.225 341.28 320.979C341.022 320.732 340.894 320.416 340.894 320.029ZM351.036 324.872C350.69 324.825 350.386 324.802 350.122 324.802C349.161 324.802 348.531 325.127 348.232 325.777V332H345.692V322.49H348.092L348.162 323.624C348.672 322.751 349.378 322.314 350.28 322.314C350.562 322.314 350.825 322.353 351.071 322.429L351.036 324.872ZM356.046 330.128C356.515 330.128 356.896 329.999 357.188 329.741C357.481 329.483 357.634 329.141 357.646 328.713H360.027C360.021 329.357 359.846 329.949 359.5 330.488C359.154 331.021 358.68 331.438 358.076 331.736C357.479 332.029 356.816 332.176 356.09 332.176C354.73 332.176 353.658 331.745 352.873 330.884C352.088 330.017 351.695 328.821 351.695 327.298V327.131C351.695 325.666 352.085 324.497 352.864 323.624C353.644 322.751 354.713 322.314 356.072 322.314C357.262 322.314 358.214 322.654 358.929 323.334C359.649 324.008 360.016 324.907 360.027 326.032H357.646C357.634 325.54 357.481 325.142 357.188 324.837C356.896 324.526 356.509 324.371 356.028 324.371C355.437 324.371 354.988 324.588 354.684 325.021C354.385 325.449 354.235 326.146 354.235 327.113V327.377C354.235 328.355 354.385 329.059 354.684 329.486C354.982 329.914 355.437 330.128 356.046 330.128ZM364.158 332H361.609V318.5H364.158V332ZM370.636 332.176C369.241 332.176 368.104 331.748 367.226 330.893C366.353 330.037 365.916 328.897 365.916 327.474V327.228C365.916 326.272 366.101 325.42 366.47 324.67C366.839 323.914 367.36 323.334 368.034 322.93C368.714 322.52 369.487 322.314 370.354 322.314C371.655 322.314 372.678 322.725 373.422 323.545C374.172 324.365 374.547 325.528 374.547 327.034V328.071H368.491C368.573 328.692 368.819 329.19 369.229 329.565C369.646 329.94 370.17 330.128 370.803 330.128C371.781 330.128 372.546 329.773 373.097 329.064L374.345 330.462C373.964 331.001 373.448 331.423 372.798 331.728C372.147 332.026 371.427 332.176 370.636 332.176ZM370.346 324.371C369.842 324.371 369.432 324.541 369.115 324.881C368.805 325.221 368.605 325.707 368.518 326.34H372.051V326.138C372.039 325.575 371.887 325.142 371.594 324.837C371.301 324.526 370.885 324.371 370.346 324.371ZM381.183 326.542L376.076 324.758V322.314L383.731 325.522V327.588L376.076 330.805V328.353L381.183 326.542Z" fill="#F3F6F9"/>
<rect y="200" width="200" height="50" fill="#353535"/>
<rect x="1" y="201" width="198" height="48" stroke="#90CAF9" stroke-opacity="0.5" stroke-width="2"/>
<path d="M82.0322 225.568L87.042 227.335V229.796L79.4746 226.588V224.514L87.042 221.306V223.767L82.0322 225.568ZM88.7383 226.175C88.7383 224.692 89.0693 223.512 89.7314 222.633C90.3994 221.754 91.3105 221.314 92.4648 221.314C93.3906 221.314 94.1553 221.66 94.7588 222.352V217.5H97.3076V231H95.0137L94.8906 229.989C94.2578 230.78 93.4434 231.176 92.4473 231.176C91.3281 231.176 90.4287 230.736 89.749 229.857C89.0752 228.973 88.7383 227.745 88.7383 226.175ZM91.2783 226.359C91.2783 227.25 91.4336 227.933 91.7441 228.407C92.0547 228.882 92.5059 229.119 93.0977 229.119C93.8828 229.119 94.4365 228.788 94.7588 228.126V224.373C94.4424 223.711 93.8945 223.38 93.1152 223.38C91.8906 223.38 91.2783 224.373 91.2783 226.359ZM101.957 231H99.4082V221.49H101.957V231ZM99.2588 219.029C99.2588 218.648 99.3848 218.335 99.6367 218.089C99.8945 217.843 100.243 217.72 100.683 217.72C101.116 217.72 101.462 217.843 101.72 218.089C101.978 218.335 102.106 218.648 102.106 219.029C102.106 219.416 101.975 219.732 101.711 219.979C101.453 220.225 101.11 220.348 100.683 220.348C100.255 220.348 99.9092 220.225 99.6455 219.979C99.3877 219.732 99.2588 219.416 99.2588 219.029ZM107.617 227.897L109.384 221.49H112.038L108.83 231H106.404L103.196 221.49H105.851L107.617 227.897ZM118.349 225.542L113.242 223.758V221.314L120.897 224.522V226.588L113.242 229.805V227.353L118.349 225.542Z" fill="#F3F6F9"/>
<path d="M85.2929 192.707C85.6834 193.098 86.3166 193.098 86.7071 192.707L93.0711 186.343C93.4616 185.953 93.4616 185.319 93.0711 184.929C92.6805 184.538 92.0474 184.538 91.6569 184.929L86 190.586L80.3431 184.929C79.9526 184.538 79.3195 184.538 78.9289 184.929C78.5384 185.319 78.5384 185.953 78.9289 186.343L85.2929 192.707ZM85 159V192H87V159H85Z" fill="#90CAF9"/>
<path d="M85.2929 92.7071C85.6834 93.0976 86.3166 93.0976 86.7071 92.7071L93.0711 86.3431C93.4616 85.9526 93.4616 85.3195 93.0711 84.9289C92.6805 84.5384 92.0474 84.5384 91.6569 84.9289L86 90.5858L80.3431 84.9289C79.9526 84.5384 79.3195 84.5384 78.9289 84.9289C78.5384 85.3195 78.5384 85.9526 78.9289 86.3431L85.2929 92.7071ZM85 59V92H87V59H85Z" fill="#90CAF9"/>
<path d="M85.2929 291.707C85.6834 292.098 86.3166 292.098 86.7071 291.707L93.0711 285.343C93.4616 284.953 93.4616 284.319 93.0711 283.929C92.6805 283.538 92.0474 283.538 91.6569 283.929L86 289.586L80.3431 283.929C79.9526 283.538 79.3195 283.538 78.9289 283.929C78.5384 284.319 78.5384 284.953 78.9289 285.343L85.2929 291.707ZM85 258V291H87V258H85Z" fill="#90CAF9"/>
<path d="M85.2929 192.707C85.6834 193.098 86.3166 193.098 86.7071 192.707L93.0711 186.343C93.4616 185.953 93.4616 185.319 93.0711 184.929C92.6805 184.538 92.0474 184.538 91.6569 184.929L86 190.586L80.3431 184.929C79.9526 184.538 79.3195 184.538 78.9289 184.929C78.5384 185.319 78.5384 185.953 78.9289 186.343L85.2929 192.707ZM85 159V192H87V159H85Z" fill="#90CAF9"/>
<path d="M85.2929 92.7071C85.6834 93.0976 86.3166 93.0976 86.7071 92.7071L93.0711 86.3431C93.4616 85.9526 93.4616 85.3195 93.0711 84.9289C92.6805 84.5384 92.0474 84.5384 91.6569 84.9289L86 90.5858L80.3431 84.9289C79.9526 84.5384 79.3195 84.5384 78.9289 84.9289C78.5384 85.3195 78.5384 85.9526 78.9289 86.3431L85.2929 92.7071ZM85 59V92H87V59H85Z" fill="#90CAF9"/>
<path d="M85.2929 291.707C85.6834 292.098 86.3166 292.098 86.7071 291.707L93.0711 285.343C93.4616 284.953 93.4616 284.319 93.0711 283.929C92.6805 283.538 92.0474 283.538 91.6569 283.929L86 289.586L80.3431 283.929C79.9526 283.538 79.3195 283.538 78.9289 283.929C78.5384 284.319 78.5384 284.953 78.9289 285.343L85.2929 291.707ZM85 258V291H87V258H85Z" fill="#90CAF9"/>
<path d="M115.707 158.293C115.317 157.902 114.683 157.902 114.293 158.293L107.929 164.657C107.538 165.047 107.538 165.681 107.929 166.071C108.319 166.462 108.953 166.462 109.343 166.071L115 160.414L120.657 166.071C121.047 166.462 121.681 166.462 122.071 166.071C122.462 165.681 122.462 165.047 122.071 164.657L115.707 158.293ZM116 192V159H114V192H116Z" fill="#DCE2C8"/>
<path d="M115.707 58.2929C115.317 57.9024 114.683 57.9024 114.293 58.2929L107.929 64.6569C107.538 65.0474 107.538 65.6805 107.929 66.0711C108.319 66.4616 108.953 66.4616 109.343 66.0711L115 60.4142L120.657 66.0711C121.047 66.4616 121.681 66.4616 122.071 66.0711C122.462 65.6805 122.462 65.0474 122.071 64.6569L115.707 58.2929ZM116 92V59H114V92H116Z" fill="#DCE2C8"/>
<path d="M115.707 257.293C115.317 256.902 114.683 256.902 114.293 257.293L107.929 263.657C107.538 264.047 107.538 264.681 107.929 265.071C108.319 265.462 108.953 265.462 109.343 265.071L115 259.414L120.657 265.071C121.047 265.462 121.681 265.462 122.071 265.071C122.462 264.681 122.462 264.047 122.071 263.657L115.707 257.293ZM116 291V258H114V291H116Z" fill="#DCE2C8"/>
<path d="M115.707 158.293C115.317 157.902 114.683 157.902 114.293 158.293L107.929 164.657C107.538 165.047 107.538 165.681 107.929 166.071C108.319 166.462 108.953 166.462 109.343 166.071L115 160.414L120.657 166.071C121.047 166.462 121.681 166.462 122.071 166.071C122.462 165.681 122.462 165.047 122.071 164.657L115.707 158.293ZM116 192V159H114V192H116Z" fill="#DCE2C8"/>
<path d="M115.707 58.2929C115.317 57.9024 114.683 57.9024 114.293 58.2929L107.929 64.6569C107.538 65.0474 107.538 65.6805 107.929 66.0711C108.319 66.4616 108.953 66.4616 109.343 66.0711L115 60.4142L120.657 66.0711C121.047 66.4616 121.681 66.4616 122.071 66.0711C122.462 65.6805 122.462 65.0474 122.071 64.6569L115.707 58.2929ZM116 92V59H114V92H116Z" fill="#DCE2C8"/>
<path d="M115.707 257.293C115.317 256.902 114.683 256.902 114.293 257.293L107.929 263.657C107.538 264.047 107.538 264.681 107.929 265.071C108.319 265.462 108.953 265.462 109.343 265.071L115 259.414L120.657 265.071C121.047 265.462 121.681 265.462 122.071 265.071C122.462 264.681 122.462 264.047 122.071 263.657L115.707 257.293ZM116 291V258H114V291H116Z" fill="#DCE2C8"/>
<path d="M209.613 224.078C209.104 224.292 208.864 224.878 209.078 225.387L212.563 233.685C212.777 234.194 213.363 234.434 213.872 234.22C214.382 234.006 214.621 233.42 214.407 232.911L211.309 225.535L218.685 222.437C219.194 222.223 219.434 221.637 219.22 221.128C219.006 220.618 218.42 220.379 217.911 220.593L209.613 224.078ZM352.378 282.074L210.378 224.074L209.622 225.926L351.622 283.926L352.378 282.074Z" fill="#DCE2C8"/>
<path d="M243.707 326.707C244.098 326.317 244.098 325.683 243.707 325.293L237.343 318.929C236.953 318.538 236.319 318.538 235.929 318.929C235.538 319.319 235.538 319.953 235.929 320.343L241.586 326L235.929 331.657C235.538 332.047 235.538 332.681 235.929 333.071C236.319 333.462 236.953 333.462 237.343 333.071L243.707 326.707ZM210 327H243V325H210V327Z" fill="#A8DCD1"/>
<circle cx="381.5" cy="14.5" r="7.5" fill="#90CAF9"/>
<circle cx="381.5" cy="36.5" r="7.5" fill="#A8DCD1"/>
<circle cx="381.5" cy="58.5" r="7.5" fill="#DCE2C8"/>
<circle cx="381.5" cy="102.5" r="7.5" fill="#353535"/>
<circle cx="381.5" cy="102.5" r="7.5" stroke="black"/>
<path d="M405.477 15.8418C405.354 16.8945 404.964 17.708 404.308 18.2822C403.656 18.8519 402.788 19.1367 401.703 19.1367C400.527 19.1367 399.584 18.7152 398.873 17.8721C398.167 17.029 397.813 15.901 397.813 14.4883V13.5312C397.813 12.6061 397.978 11.7926 398.306 11.0908C398.638 10.389 399.108 9.85124 399.714 9.47754C400.32 9.09928 401.022 8.91016 401.819 8.91016C402.877 8.91016 403.724 9.20638 404.362 9.79883C405 10.3867 405.372 11.2025 405.477 12.2461H404.157C404.043 11.4531 403.795 10.8789 403.412 10.5234C403.034 10.168 402.503 9.99023 401.819 9.99023C400.981 9.99023 400.322 10.3001 399.844 10.9199C399.37 11.5397 399.133 12.4215 399.133 13.5654V14.5293C399.133 15.6094 399.358 16.4684 399.81 17.1064C400.261 17.7445 400.892 18.0635 401.703 18.0635C402.432 18.0635 402.991 17.8994 403.378 17.5713C403.77 17.2386 404.03 16.6621 404.157 15.8418H405.477ZM408.341 12.499C408.901 11.8109 409.631 11.4668 410.528 11.4668C412.091 11.4668 412.88 12.3486 412.894 14.1123V19H411.629V14.1055C411.624 13.5723 411.501 13.1781 411.26 12.9229C411.023 12.6676 410.651 12.54 410.146 12.54C409.735 12.54 409.375 12.6494 409.065 12.8682C408.756 13.0869 408.514 13.374 408.341 13.7295V19H407.076V8.5H408.341V12.499ZM416.161 19H414.896V11.6035H416.161V19ZM414.794 9.6416C414.794 9.43652 414.855 9.26335 414.979 9.12207C415.106 8.98079 415.293 8.91016 415.539 8.91016C415.785 8.91016 415.972 8.98079 416.1 9.12207C416.227 9.26335 416.291 9.43652 416.291 9.6416C416.291 9.84668 416.227 10.0176 416.1 10.1543C415.972 10.291 415.785 10.3594 415.539 10.3594C415.293 10.3594 415.106 10.291 414.979 10.1543C414.855 10.0176 414.794 9.84668 414.794 9.6416ZM419.565 19H418.301V8.5H419.565V19ZM421.288 15.2402C421.288 14.1055 421.557 13.194 422.095 12.5059C422.632 11.8132 423.337 11.4668 424.207 11.4668C425.073 11.4668 425.759 11.763 426.265 12.3555V8.5H427.529V19H426.367L426.306 18.207C425.8 18.8268 425.096 19.1367 424.193 19.1367C423.337 19.1367 422.637 18.7858 422.095 18.084C421.557 17.3822 421.288 16.4661 421.288 15.3359V15.2402ZM422.553 15.3838C422.553 16.2223 422.726 16.8786 423.072 17.3525C423.419 17.8265 423.897 18.0635 424.508 18.0635C425.31 18.0635 425.896 17.7035 426.265 16.9834V13.5859C425.886 12.8887 425.305 12.54 424.521 12.54C423.902 12.54 423.419 12.7793 423.072 13.2578C422.726 13.7363 422.553 14.445 422.553 15.3838Z" fill="white"/>
<path d="M401.088 36.5635C399.962 36.2399 399.142 35.8434 398.627 35.374C398.117 34.9001 397.861 34.3167 397.861 33.624C397.861 32.8402 398.174 32.193 398.798 31.6826C399.427 31.1676 400.243 30.9102 401.245 30.9102C401.929 30.9102 402.537 31.0423 403.07 31.3066C403.608 31.571 404.023 31.9355 404.314 32.4004C404.611 32.8652 404.759 33.3734 404.759 33.9248H403.439C403.439 33.3232 403.248 32.8516 402.865 32.5098C402.482 32.1634 401.942 31.9902 401.245 31.9902C400.598 31.9902 400.092 32.1338 399.728 32.4209C399.368 32.7035 399.188 33.0977 399.188 33.6035C399.188 34.0091 399.358 34.3532 399.7 34.6357C400.047 34.9137 400.632 35.1689 401.457 35.4014C402.286 35.6338 402.934 35.8913 403.398 36.1738C403.868 36.4518 404.214 36.7777 404.438 37.1514C404.665 37.5251 404.779 37.9648 404.779 38.4707C404.779 39.2773 404.465 39.9245 403.836 40.4121C403.207 40.8952 402.366 41.1367 401.313 41.1367C400.63 41.1367 399.992 41.0068 399.399 40.7471C398.807 40.4827 398.349 40.1227 398.025 39.667C397.706 39.2113 397.547 38.694 397.547 38.1152H398.866C398.866 38.7168 399.087 39.193 399.529 39.5439C399.976 39.8903 400.571 40.0635 401.313 40.0635C402.006 40.0635 402.537 39.9222 402.906 39.6396C403.275 39.3571 403.46 38.972 403.46 38.4844C403.46 37.9967 403.289 37.6208 402.947 37.3564C402.605 37.0876 401.986 36.8232 401.088 36.5635ZM407.644 41H406.379V33.6035H407.644V41ZM406.276 31.6416C406.276 31.4365 406.338 31.2633 406.461 31.1221C406.589 30.9808 406.775 30.9102 407.021 30.9102C407.268 30.9102 407.454 30.9808 407.582 31.1221C407.71 31.2633 407.773 31.4365 407.773 31.6416C407.773 31.8467 407.71 32.0176 407.582 32.1543C407.454 32.291 407.268 32.3594 407.021 32.3594C406.775 32.3594 406.589 32.291 406.461 32.1543C406.338 32.0176 406.276 31.8467 406.276 31.6416ZM415.936 37.3838C415.936 38.514 415.676 39.4232 415.156 40.1113C414.637 40.7949 413.939 41.1367 413.064 41.1367C412.13 41.1367 411.408 40.8063 410.897 40.1455L410.836 41H409.674V30.5H410.938V34.417C411.449 33.7835 412.153 33.4668 413.051 33.4668C413.949 33.4668 414.653 33.8063 415.163 34.4854C415.678 35.1644 415.936 36.0941 415.936 37.2744V37.3838ZM414.671 37.2402C414.671 36.3789 414.505 35.7135 414.172 35.2441C413.839 34.7747 413.361 34.54 412.736 34.54C411.902 34.54 411.303 34.9274 410.938 35.7021V38.9014C411.326 39.6761 411.93 40.0635 412.75 40.0635C413.356 40.0635 413.828 39.8288 414.165 39.3594C414.502 38.89 414.671 38.1836 414.671 37.2402ZM418.909 41H417.645V30.5H418.909V41ZM422.313 41H421.049V33.6035H422.313V41ZM420.946 31.6416C420.946 31.4365 421.008 31.2633 421.131 31.1221C421.258 30.9808 421.445 30.9102 421.691 30.9102C421.938 30.9102 422.124 30.9808 422.252 31.1221C422.38 31.2633 422.443 31.4365 422.443 31.6416C422.443 31.8467 422.38 32.0176 422.252 32.1543C422.124 32.291 421.938 32.3594 421.691 32.3594C421.445 32.3594 421.258 32.291 421.131 32.1543C421.008 32.0176 420.946 31.8467 420.946 31.6416ZM425.54 33.6035L425.581 34.5332C426.146 33.8223 426.884 33.4668 427.796 33.4668C429.359 33.4668 430.147 34.3486 430.161 36.1123V41H428.896V36.1055C428.892 35.5723 428.769 35.1781 428.527 34.9229C428.29 34.6676 427.919 34.54 427.413 34.54C427.003 34.54 426.643 34.6494 426.333 34.8682C426.023 35.0869 425.782 35.374 425.608 35.7295V41H424.344V33.6035H425.54ZM431.768 37.2402C431.768 36.0872 432.034 35.1712 432.567 34.4922C433.101 33.8086 433.807 33.4668 434.687 33.4668C435.589 33.4668 436.293 33.7858 436.799 34.4238L436.86 33.6035H438.016V40.8223C438.016 41.7793 437.731 42.5335 437.161 43.085C436.596 43.6364 435.835 43.9121 434.878 43.9121C434.345 43.9121 433.823 43.7982 433.312 43.5703C432.802 43.3424 432.412 43.0303 432.144 42.6338L432.8 41.875C433.342 42.5449 434.005 42.8799 434.789 42.8799C435.404 42.8799 435.883 42.7067 436.225 42.3604C436.571 42.014 436.744 41.5264 436.744 40.8975V40.2617C436.238 40.8451 435.548 41.1367 434.673 41.1367C433.807 41.1367 433.105 40.7881 432.567 40.0908C432.034 39.3936 431.768 38.4434 431.768 37.2402ZM433.039 37.3838C433.039 38.2178 433.21 38.874 433.552 39.3525C433.894 39.8265 434.372 40.0635 434.987 40.0635C435.785 40.0635 436.37 39.7012 436.744 38.9766V35.5996C436.357 34.8932 435.776 34.54 435.001 34.54C434.386 34.54 433.905 34.7793 433.559 35.2578C433.212 35.7363 433.039 36.445 433.039 37.3838Z" fill="white"/>
<path d="M401.806 58.9736H399.468V63H398.148V53.0469H401.443C402.564 53.0469 403.426 53.3021 404.027 53.8125C404.633 54.3229 404.937 55.0658 404.937 56.041C404.937 56.6608 404.768 57.2008 404.431 57.6611C404.098 58.1214 403.633 58.4655 403.036 58.6934L405.374 62.918V63H403.966L401.806 58.9736ZM399.468 57.9004H401.484C402.136 57.9004 402.653 57.7318 403.036 57.3945C403.424 57.0573 403.617 56.6061 403.617 56.041C403.617 55.4258 403.433 54.9541 403.063 54.626C402.699 54.2979 402.17 54.1315 401.478 54.127H399.468V57.9004ZM409.653 63.1367C408.651 63.1367 407.835 62.8086 407.206 62.1523C406.577 61.4915 406.263 60.6097 406.263 59.5068V59.2744C406.263 58.5407 406.402 57.8867 406.68 57.3125C406.962 56.7337 407.354 56.2826 407.855 55.959C408.361 55.6309 408.908 55.4668 409.496 55.4668C410.458 55.4668 411.205 55.7835 411.738 56.417C412.271 57.0505 412.538 57.9574 412.538 59.1377V59.6641H407.527C407.546 60.3932 407.757 60.9834 408.163 61.4346C408.573 61.8812 409.093 62.1045 409.722 62.1045C410.168 62.1045 410.547 62.0133 410.856 61.8311C411.166 61.6488 411.438 61.4072 411.67 61.1064L412.442 61.708C411.823 62.6605 410.893 63.1367 409.653 63.1367ZM409.496 56.5059C408.986 56.5059 408.557 56.6927 408.211 57.0664C407.865 57.4355 407.65 57.9551 407.568 58.625H411.273V58.5293C411.237 57.8867 411.064 57.39 410.754 57.0391C410.444 56.6836 410.025 56.5059 409.496 56.5059ZM415.724 53.8125V55.6035H417.104V56.5811H415.724V61.168C415.724 61.4642 415.785 61.6875 415.908 61.8379C416.031 61.9837 416.241 62.0566 416.537 62.0566C416.683 62.0566 416.883 62.0293 417.139 61.9746V63C416.806 63.0911 416.482 63.1367 416.168 63.1367C415.603 63.1367 415.177 62.9658 414.89 62.624C414.603 62.2822 414.459 61.7969 414.459 61.168V56.5811H413.112V55.6035H414.459V53.8125H415.724ZM423.154 62.2686C422.662 62.8473 421.94 63.1367 420.987 63.1367C420.199 63.1367 419.597 62.9089 419.183 62.4531C418.772 61.9928 418.565 61.3138 418.561 60.416V55.6035H419.825V60.3818C419.825 61.5029 420.281 62.0635 421.192 62.0635C422.159 62.0635 422.801 61.7035 423.12 60.9834V55.6035H424.385V63H423.182L423.154 62.2686ZM429.888 56.7383C429.696 56.7064 429.489 56.6904 429.266 56.6904C428.436 56.6904 427.873 57.0436 427.577 57.75V63H426.312V55.6035H427.543L427.563 56.458C427.978 55.7972 428.566 55.4668 429.327 55.4668C429.573 55.4668 429.76 55.4987 429.888 55.5625V56.7383ZM432.253 55.6035L432.294 56.5332C432.859 55.8223 433.597 55.4668 434.509 55.4668C436.072 55.4668 436.86 56.3486 436.874 58.1123V63H435.609V58.1055C435.605 57.5723 435.482 57.1781 435.24 56.9229C435.003 56.6676 434.632 56.54 434.126 56.54C433.716 56.54 433.356 56.6494 433.046 56.8682C432.736 57.0869 432.494 57.374 432.321 57.7295V63H431.057V55.6035H432.253Z" fill="white"/>
<path d="M405.162 75.0469V81.8145C405.158 82.7533 404.861 83.5212 404.273 84.1182C403.69 84.7152 402.897 85.0501 401.895 85.123L401.546 85.1367C400.457 85.1367 399.589 84.8428 398.941 84.2549C398.294 83.667 397.966 82.8581 397.957 81.8281V75.0469H399.256V81.7871C399.256 82.5072 399.454 83.0677 399.851 83.4688C400.247 83.8652 400.812 84.0635 401.546 84.0635C402.289 84.0635 402.856 83.8652 403.248 83.4688C403.645 83.0723 403.843 82.514 403.843 81.7939V75.0469H405.162ZM413.283 81.3838C413.283 82.5094 413.026 83.4163 412.511 84.1045C411.996 84.7926 411.299 85.1367 410.419 85.1367C409.521 85.1367 408.815 84.8519 408.3 84.2822V87.8438H407.035V77.6035H408.19L408.252 78.4238C408.767 77.7858 409.482 77.4668 410.398 77.4668C411.287 77.4668 411.989 77.8018 412.504 78.4717C413.023 79.1416 413.283 80.0736 413.283 81.2676V81.3838ZM412.019 81.2402C412.019 80.4062 411.841 79.7477 411.485 79.2646C411.13 78.7816 410.642 78.54 410.022 78.54C409.257 78.54 408.683 78.8796 408.3 79.5586V83.0928C408.678 83.7673 409.257 84.1045 410.036 84.1045C410.642 84.1045 411.123 83.8652 411.479 83.3867C411.839 82.9036 412.019 82.1882 412.019 81.2402ZM414.589 81.2402C414.589 80.1055 414.858 79.194 415.396 78.5059C415.933 77.8132 416.637 77.4668 417.508 77.4668C418.374 77.4668 419.06 77.763 419.565 78.3555V74.5H420.83V85H419.668L419.606 84.207C419.101 84.8268 418.396 85.1367 417.494 85.1367C416.637 85.1367 415.938 84.7858 415.396 84.084C414.858 83.3822 414.589 82.4661 414.589 81.3359V81.2402ZM415.854 81.3838C415.854 82.2223 416.027 82.8786 416.373 83.3525C416.719 83.8265 417.198 84.0635 417.809 84.0635C418.611 84.0635 419.196 83.7035 419.565 82.9834V79.5859C419.187 78.8887 418.606 78.54 417.822 78.54C417.202 78.54 416.719 78.7793 416.373 79.2578C416.027 79.7363 415.854 80.445 415.854 81.3838ZM427.365 85C427.292 84.8542 427.233 84.5944 427.188 84.2207C426.6 84.8314 425.898 85.1367 425.082 85.1367C424.353 85.1367 423.754 84.9316 423.284 84.5215C422.819 84.1068 422.587 83.5827 422.587 82.9492C422.587 82.179 422.879 81.582 423.462 81.1582C424.05 80.7298 424.875 80.5156 425.937 80.5156H427.167V79.9346C427.167 79.4925 427.035 79.1416 426.771 78.8818C426.506 78.6175 426.117 78.4854 425.602 78.4854C425.15 78.4854 424.772 78.5993 424.467 78.8271C424.161 79.055 424.009 79.3307 424.009 79.6543H422.737C422.737 79.2852 422.867 78.9297 423.127 78.5879C423.391 78.2415 423.747 77.9681 424.193 77.7676C424.645 77.5671 425.139 77.4668 425.677 77.4668C426.529 77.4668 427.197 77.681 427.68 78.1094C428.163 78.5332 428.413 79.1188 428.432 79.8662V83.2705C428.432 83.9495 428.518 84.4896 428.691 84.8906V85H427.365ZM425.267 84.0361C425.663 84.0361 426.039 83.9336 426.395 83.7285C426.75 83.5234 427.007 83.2568 427.167 82.9287V81.4111H426.176C424.626 81.4111 423.852 81.8646 423.852 82.7715C423.852 83.168 423.984 83.4779 424.248 83.7012C424.512 83.9245 424.852 84.0361 425.267 84.0361ZM432.13 75.8125V77.6035H433.511V78.5811H432.13V83.168C432.13 83.4642 432.191 83.6875 432.314 83.8379C432.438 83.9837 432.647 84.0566 432.943 84.0566C433.089 84.0566 433.29 84.0293 433.545 83.9746V85C433.212 85.0911 432.889 85.1367 432.574 85.1367C432.009 85.1367 431.583 84.9658 431.296 84.624C431.009 84.2822 430.865 83.7969 430.865 83.168V78.5811H429.519V77.6035H430.865V75.8125H432.13ZM438.063 85.1367C437.061 85.1367 436.245 84.8086 435.616 84.1523C434.987 83.4915 434.673 82.6097 434.673 81.5068V81.2744C434.673 80.5407 434.812 79.8867 435.09 79.3125C435.372 78.7337 435.764 78.2826 436.266 77.959C436.771 77.6309 437.318 77.4668 437.906 77.4668C438.868 77.4668 439.615 77.7835 440.148 78.417C440.682 79.0505 440.948 79.9574 440.948 81.1377V81.6641H435.938C435.956 82.3932 436.168 82.9834 436.573 83.4346C436.983 83.8812 437.503 84.1045 438.132 84.1045C438.578 84.1045 438.957 84.0133 439.267 83.8311C439.576 83.6488 439.848 83.4072 440.08 83.1064L440.853 83.708C440.233 84.6605 439.303 85.1367 438.063 85.1367ZM437.906 78.5059C437.396 78.5059 436.967 78.6927 436.621 79.0664C436.275 79.4355 436.061 79.9551 435.979 80.625H439.684V80.5293C439.647 79.8867 439.474 79.39 439.164 79.0391C438.854 78.6836 438.435 78.5059 437.906 78.5059Z" fill="white"/>
<path d="M401.806 103.974H399.468V108H398.148V98.0469H401.443C402.564 98.0469 403.426 98.3021 404.027 98.8125C404.633 99.3229 404.937 100.066 404.937 101.041C404.937 101.661 404.768 102.201 404.431 102.661C404.098 103.121 403.633 103.465 403.036 103.693L405.374 107.918V108H403.966L401.806 103.974ZM399.468 102.9H401.484C402.136 102.9 402.653 102.732 403.036 102.395C403.424 102.057 403.617 101.606 403.617 101.041C403.617 100.426 403.433 99.9541 403.063 99.626C402.699 99.2979 402.17 99.1315 401.478 99.127H399.468V102.9ZM409.653 108.137C408.651 108.137 407.835 107.809 407.206 107.152C406.577 106.492 406.263 105.61 406.263 104.507V104.274C406.263 103.541 406.402 102.887 406.68 102.312C406.962 101.734 407.354 101.283 407.855 100.959C408.361 100.631 408.908 100.467 409.496 100.467C410.458 100.467 411.205 100.784 411.738 101.417C412.271 102.05 412.538 102.957 412.538 104.138V104.664H407.527C407.546 105.393 407.757 105.983 408.163 106.435C408.573 106.881 409.093 107.104 409.722 107.104C410.168 107.104 410.547 107.013 410.856 106.831C411.166 106.649 411.438 106.407 411.67 106.106L412.442 106.708C411.823 107.66 410.893 108.137 409.653 108.137ZM409.496 101.506C408.986 101.506 408.557 101.693 408.211 102.066C407.865 102.436 407.65 102.955 407.568 103.625H411.273V103.529C411.237 102.887 411.064 102.39 410.754 102.039C410.444 101.684 410.025 101.506 409.496 101.506ZM415.204 100.604L415.245 101.533C415.81 100.822 416.549 100.467 417.46 100.467C419.023 100.467 419.812 101.349 419.825 103.112V108H418.561V103.105C418.556 102.572 418.433 102.178 418.191 101.923C417.954 101.668 417.583 101.54 417.077 101.54C416.667 101.54 416.307 101.649 415.997 101.868C415.687 102.087 415.446 102.374 415.272 102.729V108H414.008V100.604H415.204ZM421.425 104.24C421.425 103.105 421.694 102.194 422.231 101.506C422.769 100.813 423.473 100.467 424.344 100.467C425.21 100.467 425.896 100.763 426.401 101.355V97.5H427.666V108H426.504L426.442 107.207C425.937 107.827 425.232 108.137 424.33 108.137C423.473 108.137 422.774 107.786 422.231 107.084C421.694 106.382 421.425 105.466 421.425 104.336V104.24ZM422.689 104.384C422.689 105.222 422.863 105.879 423.209 106.353C423.555 106.826 424.034 107.063 424.645 107.063C425.447 107.063 426.032 106.703 426.401 105.983V102.586C426.023 101.889 425.442 101.54 424.658 101.54C424.038 101.54 423.555 101.779 423.209 102.258C422.863 102.736 422.689 103.445 422.689 104.384ZM432.704 108.137C431.701 108.137 430.886 107.809 430.257 107.152C429.628 106.492 429.313 105.61 429.313 104.507V104.274C429.313 103.541 429.452 102.887 429.73 102.312C430.013 101.734 430.405 101.283 430.906 100.959C431.412 100.631 431.959 100.467 432.547 100.467C433.508 100.467 434.256 100.784 434.789 101.417C435.322 102.05 435.589 102.957 435.589 104.138V104.664H430.578C430.596 105.393 430.808 105.983 431.214 106.435C431.624 106.881 432.144 107.104 432.772 107.104C433.219 107.104 433.597 107.013 433.907 106.831C434.217 106.649 434.488 106.407 434.721 106.106L435.493 106.708C434.873 107.66 433.944 108.137 432.704 108.137ZM432.547 101.506C432.036 101.506 431.608 101.693 431.262 102.066C430.915 102.436 430.701 102.955 430.619 103.625H434.324V103.529C434.288 102.887 434.115 102.39 433.805 102.039C433.495 101.684 433.076 101.506 432.547 101.506ZM440.634 101.738C440.442 101.706 440.235 101.69 440.012 101.69C439.182 101.69 438.619 102.044 438.323 102.75V108H437.059V100.604H438.289L438.31 101.458C438.724 100.797 439.312 100.467 440.073 100.467C440.319 100.467 440.506 100.499 440.634 100.562V101.738Z" fill="white"/>
</svg>
