<svg width="452" height="451" viewBox="0 0 452 451" fill="none" xmlns="http://www.w3.org/2000/svg">
<rect width="200" height="50" fill="#252525"/>
<rect x="1" y="1" width="198" height="48" stroke="#90CAF9" stroke-opacity="0.5" stroke-width="2"/>
<path d="M73.5576 32H70.9209V26.5156H65.7793V32H63.1426V19.2031H65.7793V24.3887H70.9209V19.2031H73.5576V32ZM75.3066 27.1572C75.3066 26.2139 75.4883 25.373 75.8516 24.6348C76.2148 23.8965 76.7363 23.3252 77.416 22.9209C78.1016 22.5166 78.8955 22.3145 79.7979 22.3145C81.0811 22.3145 82.127 22.707 82.9355 23.4922C83.75 24.2773 84.2041 25.3438 84.2979 26.6914L84.3154 27.3418C84.3154 28.8008 83.9082 29.9727 83.0938 30.8574C82.2793 31.7363 81.1865 32.1758 79.8154 32.1758C78.4443 32.1758 77.3486 31.7363 76.5283 30.8574C75.7139 29.9785 75.3066 28.7832 75.3066 27.2715V27.1572ZM77.8467 27.3418C77.8467 28.2441 78.0166 28.9355 78.3564 29.416C78.6963 29.8906 79.1826 30.1279 79.8154 30.1279C80.4307 30.1279 80.9111 29.8936 81.2568 29.4248C81.6025 28.9502 81.7754 28.1943 81.7754 27.1572C81.7754 26.2725 81.6025 25.5869 81.2568 25.1006C80.9111 24.6143 80.4248 24.3711 79.7979 24.3711C79.1768 24.3711 78.6963 24.6143 78.3564 25.1006C78.0166 25.5811 77.8467 26.3281 77.8467 27.3418ZM91.0303 29.3721C91.0303 29.0615 90.875 28.8184 90.5645 28.6426C90.2598 28.4609 89.7676 28.2998 89.0879 28.1592C86.8262 27.6846 85.6953 26.7236 85.6953 25.2764C85.6953 24.4326 86.0439 23.7295 86.7412 23.167C87.4443 22.5986 88.3613 22.3145 89.4922 22.3145C90.6992 22.3145 91.6631 22.5986 92.3838 23.167C93.1104 23.7354 93.4736 24.4736 93.4736 25.3818H90.9336C90.9336 25.0186 90.8164 24.7197 90.582 24.4854C90.3477 24.2451 89.9814 24.125 89.4834 24.125C89.0557 24.125 88.7246 24.2217 88.4902 24.415C88.2559 24.6084 88.1387 24.8545 88.1387 25.1533C88.1387 25.4346 88.2705 25.6631 88.5342 25.8389C88.8037 26.0088 89.2549 26.1582 89.8877 26.2871C90.5205 26.4102 91.0537 26.5508 91.4873 26.709C92.8291 27.2012 93.5 28.0537 93.5 29.2666C93.5 30.1338 93.1279 30.8369 92.3838 31.376C91.6396 31.9092 90.6787 32.1758 89.501 32.1758C88.7041 32.1758 87.9951 32.0352 87.374 31.7539C86.7588 31.4668 86.2754 31.0771 85.9238 30.585C85.5723 30.0869 85.3965 29.5508 85.3965 28.9766H87.8047C87.8281 29.4277 87.9951 29.7734 88.3057 30.0137C88.6162 30.2539 89.0322 30.374 89.5537 30.374C90.04 30.374 90.4062 30.2832 90.6523 30.1016C90.9043 29.9141 91.0303 29.6709 91.0303 29.3721ZM98.1846 20.1523V22.4902H99.8105V24.3535H98.1846V29.0996C98.1846 29.4512 98.252 29.7031 98.3867 29.8555C98.5215 30.0078 98.7793 30.084 99.1602 30.084C99.4414 30.084 99.6904 30.0635 99.9072 30.0225V31.9473C99.4092 32.0996 98.8965 32.1758 98.3691 32.1758C96.5879 32.1758 95.6797 31.2764 95.6445 29.4775V24.3535H94.2559V22.4902H95.6445V20.1523H98.1846ZM106.13 27.3154H104.029V32H101.393V19.2031H106.147C107.659 19.2031 108.825 19.54 109.646 20.2139C110.466 20.8877 110.876 21.8398 110.876 23.0703C110.876 23.9434 110.686 24.6729 110.305 25.2588C109.93 25.8389 109.358 26.3018 108.591 26.6475L111.359 31.877V32H108.529L106.13 27.3154ZM104.029 25.1797H106.156C106.818 25.1797 107.331 25.0127 107.694 24.6787C108.058 24.3389 108.239 23.873 108.239 23.2812C108.239 22.6777 108.066 22.2031 107.721 21.8574C107.381 21.5117 106.856 21.3389 106.147 21.3389H104.029V25.1797ZM112.326 27.1572C112.326 26.2139 112.508 25.373 112.871 24.6348C113.234 23.8965 113.756 23.3252 114.436 22.9209C115.121 22.5166 115.915 22.3145 116.817 22.3145C118.101 22.3145 119.146 22.707 119.955 23.4922C120.77 24.2773 121.224 25.3438 121.317 26.6914L121.335 27.3418C121.335 28.8008 120.928 29.9727 120.113 30.8574C119.299 31.7363 118.206 32.1758 116.835 32.1758C115.464 32.1758 114.368 31.7363 113.548 30.8574C112.733 29.9785 112.326 28.7832 112.326 27.2715V27.1572ZM114.866 27.3418C114.866 28.2441 115.036 28.9355 115.376 29.416C115.716 29.8906 116.202 30.1279 116.835 30.1279C117.45 30.1279 117.931 29.8936 118.276 29.4248C118.622 28.9502 118.795 28.1943 118.795 27.1572C118.795 26.2725 118.622 25.5869 118.276 25.1006C117.931 24.6143 117.444 24.3711 116.817 24.3711C116.196 24.3711 115.716 24.6143 115.376 25.1006C115.036 25.5811 114.866 26.3281 114.866 27.3418ZM122.504 27.1572C122.504 26.2139 122.686 25.373 123.049 24.6348C123.412 23.8965 123.934 23.3252 124.613 22.9209C125.299 22.5166 126.093 22.3145 126.995 22.3145C128.278 22.3145 129.324 22.707 130.133 23.4922C130.947 24.2773 131.401 25.3438 131.495 26.6914L131.513 27.3418C131.513 28.8008 131.105 29.9727 130.291 30.8574C129.477 31.7363 128.384 32.1758 127.013 32.1758C125.642 32.1758 124.546 31.7363 123.726 30.8574C122.911 29.9785 122.504 28.7832 122.504 27.2715V27.1572ZM125.044 27.3418C125.044 28.2441 125.214 28.9355 125.554 29.416C125.894 29.8906 126.38 30.1279 127.013 30.1279C127.628 30.1279 128.108 29.8936 128.454 29.4248C128.8 28.9502 128.973 28.1943 128.973 27.1572C128.973 26.2725 128.8 25.5869 128.454 25.1006C128.108 24.6143 127.622 24.3711 126.995 24.3711C126.374 24.3711 125.894 24.6143 125.554 25.1006C125.214 25.5811 125.044 26.3281 125.044 27.3418ZM136.118 20.1523V22.4902H137.744V24.3535H136.118V29.0996C136.118 29.4512 136.186 29.7031 136.32 29.8555C136.455 30.0078 136.713 30.084 137.094 30.084C137.375 30.084 137.624 30.0635 137.841 30.0225V31.9473C137.343 32.0996 136.83 32.1758 136.303 32.1758C134.521 32.1758 133.613 31.2764 133.578 29.4775V24.3535H132.189V22.4902H133.578V20.1523H136.118Z" fill="#F3F6F9"/>
<rect y="101" width="200" height="50" fill="#252525"/>
<rect x="1" y="102" width="198" height="48" stroke="#90CAF9" stroke-opacity="0.5" stroke-width="2"/>
<path d="M43.0322 126.568L48.042 128.335V130.796L40.4746 127.588V125.514L48.042 122.306V124.767L43.0322 126.568ZM60.2676 128.309L61.9902 119.203H64.6182L61.7793 132H59.125L57.042 123.439L54.959 132H52.3047L49.4658 119.203H52.0938L53.8252 128.291L55.9346 119.203H58.167L60.2676 128.309ZM68.5645 132H66.0156V122.49H68.5645V132ZM65.8662 120.029C65.8662 119.648 65.9922 119.335 66.2441 119.089C66.502 118.843 66.8506 118.72 67.29 118.72C67.7236 118.72 68.0693 118.843 68.3271 119.089C68.585 119.335 68.7139 119.648 68.7139 120.029C68.7139 120.416 68.582 120.732 68.3184 120.979C68.0605 121.225 67.7178 121.348 67.29 121.348C66.8623 121.348 66.5166 121.225 66.2529 120.979C65.9951 120.732 65.8662 120.416 65.8662 120.029ZM73.7061 120.152V122.49H75.332V124.354H73.7061V129.1C73.7061 129.451 73.7734 129.703 73.9082 129.855C74.043 130.008 74.3008 130.084 74.6816 130.084C74.9629 130.084 75.2119 130.063 75.4287 130.022V131.947C74.9307 132.1 74.418 132.176 73.8906 132.176C72.1094 132.176 71.2012 131.276 71.166 129.478V124.354H69.7773V122.49H71.166V120.152H73.7061ZM79.2256 123.527C79.8994 122.719 80.7461 122.314 81.7656 122.314C83.8281 122.314 84.874 123.513 84.9033 125.909V132H82.3633V125.979C82.3633 125.435 82.2461 125.033 82.0117 124.775C81.7773 124.512 81.3877 124.38 80.8428 124.38C80.0986 124.38 79.5596 124.667 79.2256 125.241V132H76.6855V118.5H79.2256V123.527ZM97.0322 127.737C96.9326 129.114 96.4229 130.198 95.5029 130.989C94.5889 131.78 93.3818 132.176 91.8818 132.176C90.2412 132.176 88.9492 131.625 88.0059 130.523C87.0684 129.416 86.5996 127.898 86.5996 125.971V125.188C86.5996 123.958 86.8164 122.874 87.25 121.937C87.6836 120.999 88.3018 120.281 89.1045 119.783C89.9131 119.279 90.8506 119.027 91.917 119.027C93.3936 119.027 94.583 119.423 95.4854 120.214C96.3877 121.005 96.9092 122.115 97.0498 123.545H94.4131C94.3486 122.719 94.1172 122.121 93.7188 121.752C93.3262 121.377 92.7256 121.189 91.917 121.189C91.0381 121.189 90.3789 121.506 89.9395 122.139C89.5059 122.766 89.2832 123.741 89.2715 125.065V126.032C89.2715 127.415 89.4795 128.426 89.8955 129.064C90.3174 129.703 90.9795 130.022 91.8818 130.022C92.6963 130.022 93.3027 129.838 93.7012 129.469C94.1055 129.094 94.3369 128.517 94.3955 127.737H97.0322ZM98.2012 127.157C98.2012 126.214 98.3828 125.373 98.7461 124.635C99.1094 123.896 99.6309 123.325 100.311 122.921C100.996 122.517 101.79 122.314 102.692 122.314C103.976 122.314 105.021 122.707 105.83 123.492C106.645 124.277 107.099 125.344 107.192 126.691L107.21 127.342C107.21 128.801 106.803 129.973 105.988 130.857C105.174 131.736 104.081 132.176 102.71 132.176C101.339 132.176 100.243 131.736 99.4229 130.857C98.6084 129.979 98.2012 128.783 98.2012 127.271V127.157ZM100.741 127.342C100.741 128.244 100.911 128.936 101.251 129.416C101.591 129.891 102.077 130.128 102.71 130.128C103.325 130.128 103.806 129.894 104.151 129.425C104.497 128.95 104.67 128.194 104.67 127.157C104.67 126.272 104.497 125.587 104.151 125.101C103.806 124.614 103.319 124.371 102.692 124.371C102.071 124.371 101.591 124.614 101.251 125.101C100.911 125.581 100.741 126.328 100.741 127.342ZM114.47 131.033C113.843 131.795 112.976 132.176 111.868 132.176C110.849 132.176 110.069 131.883 109.53 131.297C108.997 130.711 108.725 129.853 108.713 128.722V122.49H111.253V128.634C111.253 129.624 111.704 130.119 112.606 130.119C113.468 130.119 114.06 129.82 114.382 129.223V122.49H116.931V132H114.54L114.47 131.033ZM121.185 122.49L121.264 123.589C121.943 122.739 122.854 122.314 123.997 122.314C125.005 122.314 125.755 122.61 126.247 123.202C126.739 123.794 126.991 124.679 127.003 125.856V132H124.463V125.918C124.463 125.379 124.346 124.989 124.111 124.749C123.877 124.503 123.487 124.38 122.942 124.38C122.228 124.38 121.691 124.685 121.334 125.294V132H118.794V122.49H121.185ZM131.978 120.152V122.49H133.604V124.354H131.978V129.1C131.978 129.451 132.045 129.703 132.18 129.855C132.314 130.008 132.572 130.084 132.953 130.084C133.234 130.084 133.483 130.063 133.7 130.022V131.947C133.202 132.1 132.689 132.176 132.162 132.176C130.381 132.176 129.473 131.276 129.438 129.478V124.354H128.049V122.49H129.438V120.152H131.978ZM139.396 132.176C138.001 132.176 136.864 131.748 135.985 130.893C135.112 130.037 134.676 128.897 134.676 127.474V127.228C134.676 126.272 134.86 125.42 135.229 124.67C135.599 123.914 136.12 123.334 136.794 122.93C137.474 122.52 138.247 122.314 139.114 122.314C140.415 122.314 141.438 122.725 142.182 123.545C142.932 124.365 143.307 125.528 143.307 127.034V128.071H137.251C137.333 128.692 137.579 129.19 137.989 129.565C138.405 129.94 138.93 130.128 139.562 130.128C140.541 130.128 141.306 129.773 141.856 129.064L143.104 130.462C142.724 131.001 142.208 131.423 141.558 131.728C140.907 132.026 140.187 132.176 139.396 132.176ZM139.105 124.371C138.602 124.371 138.191 124.541 137.875 124.881C137.564 125.221 137.365 125.707 137.277 126.34H140.811V126.138C140.799 125.575 140.646 125.142 140.354 124.837C140.061 124.526 139.645 124.371 139.105 124.371ZM150.101 124.872C149.755 124.825 149.45 124.802 149.187 124.802C148.226 124.802 147.596 125.127 147.297 125.777V132H144.757V122.49H147.156L147.227 123.624C147.736 122.751 148.442 122.314 149.345 122.314C149.626 122.314 149.89 122.353 150.136 122.429L150.101 124.872ZM156.517 126.542L151.41 124.758V122.314L159.065 125.522V127.588L151.41 130.805V128.353L156.517 126.542Z" fill="#F3F6F9"/>
<path d="M358.997 78.5449L356.237 77.7627L356.756 76.1719L359.489 77.2705L359.313 74.2031H361.036L360.86 77.332L363.523 76.251L364.042 77.8594L361.229 78.6416L363.075 80.9795L361.678 81.9727L360.078 79.4062L358.496 81.8848L357.099 80.9355L358.997 78.5449Z" fill="#F3F6F9"/>
<rect y="200" width="200" height="50" fill="#252525"/>
<rect x="1" y="201" width="198" height="48" stroke="#90CAF9" stroke-opacity="0.5" stroke-width="2"/>
<path d="M62.0322 226.568L67.042 228.335V230.796L59.4746 227.588V225.514L67.042 222.306V224.767L62.0322 226.568ZM79.3467 227.737C79.2471 229.114 78.7373 230.198 77.8174 230.989C76.9033 231.78 75.6963 232.176 74.1963 232.176C72.5557 232.176 71.2637 231.625 70.3203 230.523C69.3828 229.416 68.9141 227.898 68.9141 225.971V225.188C68.9141 223.958 69.1309 222.874 69.5645 221.937C69.998 220.999 70.6162 220.281 71.4189 219.783C72.2275 219.279 73.165 219.027 74.2314 219.027C75.708 219.027 76.8975 219.423 77.7998 220.214C78.7021 221.005 79.2236 222.115 79.3643 223.545H76.7275C76.6631 222.719 76.4316 222.121 76.0332 221.752C75.6406 221.377 75.04 221.189 74.2314 221.189C73.3525 221.189 72.6934 221.506 72.2539 222.139C71.8203 222.766 71.5977 223.741 71.5859 225.065V226.032C71.5859 227.415 71.7939 228.426 72.21 229.064C72.6318 229.703 73.2939 230.022 74.1963 230.022C75.0107 230.022 75.6172 229.838 76.0156 229.469C76.4199 229.094 76.6514 228.517 76.71 227.737H79.3467ZM80.5156 227.157C80.5156 226.214 80.6973 225.373 81.0605 224.635C81.4238 223.896 81.9453 223.325 82.625 222.921C83.3105 222.517 84.1045 222.314 85.0068 222.314C86.29 222.314 87.3359 222.707 88.1445 223.492C88.959 224.277 89.4131 225.344 89.5068 226.691L89.5244 227.342C89.5244 228.801 89.1172 229.973 88.3027 230.857C87.4883 231.736 86.3955 232.176 85.0244 232.176C83.6533 232.176 82.5576 231.736 81.7373 230.857C80.9229 229.979 80.5156 228.783 80.5156 227.271V227.157ZM83.0557 227.342C83.0557 228.244 83.2256 228.936 83.5654 229.416C83.9053 229.891 84.3916 230.128 85.0244 230.128C85.6396 230.128 86.1201 229.894 86.4658 229.425C86.8115 228.95 86.9844 228.194 86.9844 227.157C86.9844 226.272 86.8115 225.587 86.4658 225.101C86.1201 224.614 85.6338 224.371 85.0068 224.371C84.3857 224.371 83.9053 224.614 83.5654 225.101C83.2256 225.581 83.0557 226.328 83.0557 227.342ZM96.7842 231.033C96.1572 231.795 95.29 232.176 94.1826 232.176C93.1631 232.176 92.3838 231.883 91.8447 231.297C91.3115 230.711 91.0391 229.853 91.0273 228.722V222.49H93.5674V228.634C93.5674 229.624 94.0186 230.119 94.9209 230.119C95.7822 230.119 96.374 229.82 96.6963 229.223V222.49H99.2451V232H96.8545L96.7842 231.033ZM103.499 222.49L103.578 223.589C104.258 222.739 105.169 222.314 106.312 222.314C107.319 222.314 108.069 222.61 108.562 223.202C109.054 223.794 109.306 224.679 109.317 225.856V232H106.777V225.918C106.777 225.379 106.66 224.989 106.426 224.749C106.191 224.503 105.802 224.38 105.257 224.38C104.542 224.38 104.006 224.685 103.648 225.294V232H101.108V222.49H103.499ZM114.292 220.152V222.49H115.918V224.354H114.292V229.1C114.292 229.451 114.359 229.703 114.494 229.855C114.629 230.008 114.887 230.084 115.268 230.084C115.549 230.084 115.798 230.063 116.015 230.022V231.947C115.517 232.1 115.004 232.176 114.477 232.176C112.695 232.176 111.787 231.276 111.752 229.478V224.354H110.363V222.49H111.752V220.152H114.292ZM121.71 232.176C120.315 232.176 119.179 231.748 118.3 230.893C117.427 230.037 116.99 228.897 116.99 227.474V227.228C116.99 226.272 117.175 225.42 117.544 224.67C117.913 223.914 118.435 223.334 119.108 222.93C119.788 222.52 120.562 222.314 121.429 222.314C122.729 222.314 123.752 222.725 124.496 223.545C125.246 224.365 125.621 225.528 125.621 227.034V228.071H119.565C119.647 228.692 119.894 229.19 120.304 229.565C120.72 229.94 121.244 230.128 121.877 230.128C122.855 230.128 123.62 229.773 124.171 229.064L125.419 230.462C125.038 231.001 124.522 231.423 123.872 231.728C123.222 232.026 122.501 232.176 121.71 232.176ZM121.42 224.371C120.916 224.371 120.506 224.541 120.189 224.881C119.879 225.221 119.68 225.707 119.592 226.34H123.125V226.138C123.113 225.575 122.961 225.142 122.668 224.837C122.375 224.526 121.959 224.371 121.42 224.371ZM132.415 224.872C132.069 224.825 131.765 224.802 131.501 224.802C130.54 224.802 129.91 225.127 129.611 225.777V232H127.071V222.49H129.471L129.541 223.624C130.051 222.751 130.757 222.314 131.659 222.314C131.94 222.314 132.204 222.353 132.45 222.429L132.415 224.872ZM138.831 226.542L133.725 224.758V222.314L141.38 225.522V227.588L133.725 230.805V228.353L138.831 226.542Z" fill="#F3F6F9"/>
<rect y="401" width="200" height="50" fill="#252525"/>
<rect x="1" y="402" width="198" height="48" stroke="#90CAF9" stroke-opacity="0.5" stroke-width="2"/>
<path d="M32.0322 426.568L37.042 428.335V430.796L29.4746 427.588V425.514L37.042 422.306V424.767L32.0322 426.568ZM49.3467 427.737C49.2471 429.114 48.7373 430.198 47.8174 430.989C46.9033 431.78 45.6963 432.176 44.1963 432.176C42.5557 432.176 41.2637 431.625 40.3203 430.523C39.3828 429.416 38.9141 427.898 38.9141 425.971V425.188C38.9141 423.958 39.1309 422.874 39.5645 421.937C39.998 420.999 40.6162 420.281 41.4189 419.783C42.2275 419.279 43.165 419.027 44.2314 419.027C45.708 419.027 46.8975 419.423 47.7998 420.214C48.7021 421.005 49.2236 422.115 49.3643 423.545H46.7275C46.6631 422.719 46.4316 422.121 46.0332 421.752C45.6406 421.377 45.04 421.189 44.2314 421.189C43.3525 421.189 42.6934 421.506 42.2539 422.139C41.8203 422.766 41.5977 423.741 41.5859 425.065V426.032C41.5859 427.415 41.7939 428.426 42.21 429.064C42.6318 429.703 43.2939 430.022 44.1963 430.022C45.0107 430.022 45.6172 429.838 46.0156 429.469C46.4199 429.094 46.6514 428.517 46.71 427.737H49.3467ZM50.5156 427.157C50.5156 426.214 50.6973 425.373 51.0605 424.635C51.4238 423.896 51.9453 423.325 52.625 422.921C53.3105 422.517 54.1045 422.314 55.0068 422.314C56.29 422.314 57.3359 422.707 58.1445 423.492C58.959 424.277 59.4131 425.344 59.5068 426.691L59.5244 427.342C59.5244 428.801 59.1172 429.973 58.3027 430.857C57.4883 431.736 56.3955 432.176 55.0244 432.176C53.6533 432.176 52.5576 431.736 51.7373 430.857C50.9229 429.979 50.5156 428.783 50.5156 427.271V427.157ZM53.0557 427.342C53.0557 428.244 53.2256 428.936 53.5654 429.416C53.9053 429.891 54.3916 430.128 55.0244 430.128C55.6396 430.128 56.1201 429.894 56.4658 429.425C56.8115 428.95 56.9844 428.194 56.9844 427.157C56.9844 426.272 56.8115 425.587 56.4658 425.101C56.1201 424.614 55.6338 424.371 55.0068 424.371C54.3857 424.371 53.9053 424.614 53.5654 425.101C53.2256 425.581 53.0557 426.328 53.0557 427.342ZM66.7842 431.033C66.1572 431.795 65.29 432.176 64.1826 432.176C63.1631 432.176 62.3838 431.883 61.8447 431.297C61.3115 430.711 61.0391 429.853 61.0273 428.722V422.49H63.5674V428.634C63.5674 429.624 64.0186 430.119 64.9209 430.119C65.7822 430.119 66.374 429.82 66.6963 429.223V422.49H69.2451V432H66.8545L66.7842 431.033ZM73.499 422.49L73.5781 423.589C74.2578 422.739 75.1689 422.314 76.3115 422.314C77.3193 422.314 78.0693 422.61 78.5615 423.202C79.0537 423.794 79.3057 424.679 79.3174 425.856V432H76.7773V425.918C76.7773 425.379 76.6602 424.989 76.4258 424.749C76.1914 424.503 75.8018 424.38 75.2568 424.38C74.542 424.38 74.0059 424.685 73.6484 425.294V432H71.1084V422.49H73.499ZM84.292 420.152V422.49H85.918V424.354H84.292V429.1C84.292 429.451 84.3594 429.703 84.4941 429.855C84.6289 430.008 84.8867 430.084 85.2676 430.084C85.5488 430.084 85.7979 430.063 86.0146 430.022V431.947C85.5166 432.1 85.0039 432.176 84.4766 432.176C82.6953 432.176 81.7871 431.276 81.752 429.478V424.354H80.3633V422.49H81.752V420.152H84.292ZM91.71 432.176C90.3154 432.176 89.1787 431.748 88.2998 430.893C87.4268 430.037 86.9902 428.897 86.9902 427.474V427.228C86.9902 426.272 87.1748 425.42 87.5439 424.67C87.9131 423.914 88.4346 423.334 89.1084 422.93C89.7881 422.52 90.5615 422.314 91.4287 422.314C92.7295 422.314 93.752 422.725 94.4961 423.545C95.2461 424.365 95.6211 425.528 95.6211 427.034V428.071H89.5654C89.6475 428.692 89.8936 429.19 90.3037 429.565C90.7197 429.94 91.2441 430.128 91.877 430.128C92.8555 430.128 93.6201 429.773 94.1709 429.064L95.4189 430.462C95.0381 431.001 94.5225 431.423 93.8721 431.728C93.2217 432.026 92.501 432.176 91.71 432.176ZM91.4199 424.371C90.916 424.371 90.5059 424.541 90.1895 424.881C89.8789 425.221 89.6797 425.707 89.5918 426.34H93.125V426.138C93.1133 425.575 92.9609 425.142 92.668 424.837C92.375 424.526 91.959 424.371 91.4199 424.371ZM102.415 424.872C102.069 424.825 101.765 424.802 101.501 424.802C100.54 424.802 99.9102 425.127 99.6113 425.777V432H97.0713V422.49H99.4707L99.541 423.624C100.051 422.751 100.757 422.314 101.659 422.314C101.94 422.314 102.204 422.353 102.45 422.429L102.415 424.872ZM113.858 427.737C113.759 429.114 113.249 430.198 112.329 430.989C111.415 431.78 110.208 432.176 108.708 432.176C107.067 432.176 105.775 431.625 104.832 430.523C103.895 429.416 103.426 427.898 103.426 425.971V425.188C103.426 423.958 103.643 422.874 104.076 421.937C104.51 420.999 105.128 420.281 105.931 419.783C106.739 419.279 107.677 419.027 108.743 419.027C110.22 419.027 111.409 419.423 112.312 420.214C113.214 421.005 113.735 422.115 113.876 423.545H111.239C111.175 422.719 110.943 422.121 110.545 421.752C110.152 421.377 109.552 421.189 108.743 421.189C107.864 421.189 107.205 421.506 106.766 422.139C106.332 422.766 106.109 423.741 106.098 425.065V426.032C106.098 427.415 106.306 428.426 106.722 429.064C107.144 429.703 107.806 430.022 108.708 430.022C109.522 430.022 110.129 429.838 110.527 429.469C110.932 429.094 111.163 428.517 111.222 427.737H113.858ZM115.027 427.157C115.027 426.214 115.209 425.373 115.572 424.635C115.936 423.896 116.457 423.325 117.137 422.921C117.822 422.517 118.616 422.314 119.519 422.314C120.802 422.314 121.848 422.707 122.656 423.492C123.471 424.277 123.925 425.344 124.019 426.691L124.036 427.342C124.036 428.801 123.629 429.973 122.814 430.857C122 431.736 120.907 432.176 119.536 432.176C118.165 432.176 117.069 431.736 116.249 430.857C115.435 429.979 115.027 428.783 115.027 427.271V427.157ZM117.567 427.342C117.567 428.244 117.737 428.936 118.077 429.416C118.417 429.891 118.903 430.128 119.536 430.128C120.151 430.128 120.632 429.894 120.978 429.425C121.323 428.95 121.496 428.194 121.496 427.157C121.496 426.272 121.323 425.587 120.978 425.101C120.632 424.614 120.146 424.371 119.519 424.371C118.897 424.371 118.417 424.614 118.077 425.101C117.737 425.581 117.567 426.328 117.567 427.342ZM127.938 422.49L128.018 423.589C128.697 422.739 129.608 422.314 130.751 422.314C131.759 422.314 132.509 422.61 133.001 423.202C133.493 423.794 133.745 424.679 133.757 425.856V432H131.217V425.918C131.217 425.379 131.1 424.989 130.865 424.749C130.631 424.503 130.241 424.38 129.696 424.38C128.981 424.38 128.445 424.685 128.088 425.294V432H125.548V422.49H127.938ZM138.731 420.152V422.49H140.357V424.354H138.731V429.1C138.731 429.451 138.799 429.703 138.934 429.855C139.068 430.008 139.326 430.084 139.707 430.084C139.988 430.084 140.237 430.063 140.454 430.022V431.947C139.956 432.1 139.443 432.176 138.916 432.176C137.135 432.176 136.227 431.276 136.191 429.478V424.354H134.803V422.49H136.191V420.152H138.731ZM147.116 424.872C146.771 424.825 146.466 424.802 146.202 424.802C145.241 424.802 144.611 425.127 144.312 425.777V432H141.772V422.49H144.172L144.242 423.624C144.752 422.751 145.458 422.314 146.36 422.314C146.642 422.314 146.905 422.353 147.151 422.429L147.116 424.872ZM147.635 427.157C147.635 426.214 147.816 425.373 148.18 424.635C148.543 423.896 149.064 423.325 149.744 422.921C150.43 422.517 151.224 422.314 152.126 422.314C153.409 422.314 154.455 422.707 155.264 423.492C156.078 424.277 156.532 425.344 156.626 426.691L156.644 427.342C156.644 428.801 156.236 429.973 155.422 430.857C154.607 431.736 153.515 432.176 152.144 432.176C150.772 432.176 149.677 431.736 148.856 430.857C148.042 429.979 147.635 428.783 147.635 427.271V427.157ZM150.175 427.342C150.175 428.244 150.345 428.936 150.685 429.416C151.024 429.891 151.511 430.128 152.144 430.128C152.759 430.128 153.239 429.894 153.585 429.425C153.931 428.95 154.104 428.194 154.104 427.157C154.104 426.272 153.931 425.587 153.585 425.101C153.239 424.614 152.753 424.371 152.126 424.371C151.505 424.371 151.024 424.614 150.685 425.101C150.345 425.581 150.175 426.328 150.175 427.342ZM160.889 432H158.34V418.5H160.889V432ZM168.175 426.542L163.068 424.758V422.314L170.724 425.522V427.588L163.068 430.805V428.353L168.175 426.542Z" fill="#F3F6F9"/>
<rect x="252" y="401" width="200" height="50" fill="#353535"/>
<rect x="253" y="402" width="198" height="48" stroke="#90CAF9" stroke-opacity="0.5" stroke-width="2"/>
<path d="M322.032 427.568L327.042 429.335V431.796L319.475 428.588V426.514L327.042 423.306V425.767L322.032 427.568ZM339.347 428.737C339.247 430.114 338.737 431.198 337.817 431.989C336.903 432.78 335.696 433.176 334.196 433.176C332.556 433.176 331.264 432.625 330.32 431.523C329.383 430.416 328.914 428.898 328.914 426.971V426.188C328.914 424.958 329.131 423.874 329.564 422.937C329.998 421.999 330.616 421.281 331.419 420.783C332.228 420.279 333.165 420.027 334.231 420.027C335.708 420.027 336.897 420.423 337.8 421.214C338.702 422.005 339.224 423.115 339.364 424.545H336.728C336.663 423.719 336.432 423.121 336.033 422.752C335.641 422.377 335.04 422.189 334.231 422.189C333.353 422.189 332.693 422.506 332.254 423.139C331.82 423.766 331.598 424.741 331.586 426.065V427.032C331.586 428.415 331.794 429.426 332.21 430.064C332.632 430.703 333.294 431.022 334.196 431.022C335.011 431.022 335.617 430.838 336.016 430.469C336.42 430.094 336.651 429.517 336.71 428.737H339.347ZM343.592 433H341.043V423.49H343.592V433ZM340.894 421.029C340.894 420.648 341.02 420.335 341.271 420.089C341.529 419.843 341.878 419.72 342.317 419.72C342.751 419.72 343.097 419.843 343.354 420.089C343.612 420.335 343.741 420.648 343.741 421.029C343.741 421.416 343.609 421.732 343.346 421.979C343.088 422.225 342.745 422.348 342.317 422.348C341.89 422.348 341.544 422.225 341.28 421.979C341.022 421.732 340.894 421.416 340.894 421.029ZM351.036 425.872C350.69 425.825 350.386 425.802 350.122 425.802C349.161 425.802 348.531 426.127 348.232 426.777V433H345.692V423.49H348.092L348.162 424.624C348.672 423.751 349.378 423.314 350.28 423.314C350.562 423.314 350.825 423.353 351.071 423.429L351.036 425.872ZM356.046 431.128C356.515 431.128 356.896 430.999 357.188 430.741C357.481 430.483 357.634 430.141 357.646 429.713H360.027C360.021 430.357 359.846 430.949 359.5 431.488C359.154 432.021 358.68 432.438 358.076 432.736C357.479 433.029 356.816 433.176 356.09 433.176C354.73 433.176 353.658 432.745 352.873 431.884C352.088 431.017 351.695 429.821 351.695 428.298V428.131C351.695 426.666 352.085 425.497 352.864 424.624C353.644 423.751 354.713 423.314 356.072 423.314C357.262 423.314 358.214 423.654 358.929 424.334C359.649 425.008 360.016 425.907 360.027 427.032H357.646C357.634 426.54 357.481 426.142 357.188 425.837C356.896 425.526 356.509 425.371 356.028 425.371C355.437 425.371 354.988 425.588 354.684 426.021C354.385 426.449 354.235 427.146 354.235 428.113V428.377C354.235 429.355 354.385 430.059 354.684 430.486C354.982 430.914 355.437 431.128 356.046 431.128ZM364.158 433H361.609V419.5H364.158V433ZM370.636 433.176C369.241 433.176 368.104 432.748 367.226 431.893C366.353 431.037 365.916 429.897 365.916 428.474V428.228C365.916 427.272 366.101 426.42 366.47 425.67C366.839 424.914 367.36 424.334 368.034 423.93C368.714 423.52 369.487 423.314 370.354 423.314C371.655 423.314 372.678 423.725 373.422 424.545C374.172 425.365 374.547 426.528 374.547 428.034V429.071H368.491C368.573 429.692 368.819 430.19 369.229 430.565C369.646 430.94 370.17 431.128 370.803 431.128C371.781 431.128 372.546 430.773 373.097 430.064L374.345 431.462C373.964 432.001 373.448 432.423 372.798 432.728C372.147 433.026 371.427 433.176 370.636 433.176ZM370.346 425.371C369.842 425.371 369.432 425.541 369.115 425.881C368.805 426.221 368.605 426.707 368.518 427.34H372.051V427.138C372.039 426.575 371.887 426.142 371.594 425.837C371.301 425.526 370.885 425.371 370.346 425.371ZM381.183 427.542L376.076 425.758V423.314L383.731 426.522V428.588L376.076 431.805V429.353L381.183 427.542Z" fill="#F3F6F9"/>
<rect x="252" y="401" width="200" height="50" fill="#252525"/>
<rect x="253" y="402" width="198" height="48" stroke="#90CAF9" stroke-opacity="0.5" stroke-width="2"/>
<path d="M322.032 427.568L327.042 429.335V431.796L319.475 428.588V426.514L327.042 423.306V425.767L322.032 427.568ZM339.347 428.737C339.247 430.114 338.737 431.198 337.817 431.989C336.903 432.78 335.696 433.176 334.196 433.176C332.556 433.176 331.264 432.625 330.32 431.523C329.383 430.416 328.914 428.898 328.914 426.971V426.188C328.914 424.958 329.131 423.874 329.564 422.937C329.998 421.999 330.616 421.281 331.419 420.783C332.228 420.279 333.165 420.027 334.231 420.027C335.708 420.027 336.897 420.423 337.8 421.214C338.702 422.005 339.224 423.115 339.364 424.545H336.728C336.663 423.719 336.432 423.121 336.033 422.752C335.641 422.377 335.04 422.189 334.231 422.189C333.353 422.189 332.693 422.506 332.254 423.139C331.82 423.766 331.598 424.741 331.586 426.065V427.032C331.586 428.415 331.794 429.426 332.21 430.064C332.632 430.703 333.294 431.022 334.196 431.022C335.011 431.022 335.617 430.838 336.016 430.469C336.42 430.094 336.651 429.517 336.71 428.737H339.347ZM343.592 433H341.043V423.49H343.592V433ZM340.894 421.029C340.894 420.648 341.02 420.335 341.271 420.089C341.529 419.843 341.878 419.72 342.317 419.72C342.751 419.72 343.097 419.843 343.354 420.089C343.612 420.335 343.741 420.648 343.741 421.029C343.741 421.416 343.609 421.732 343.346 421.979C343.088 422.225 342.745 422.348 342.317 422.348C341.89 422.348 341.544 422.225 341.28 421.979C341.022 421.732 340.894 421.416 340.894 421.029ZM351.036 425.872C350.69 425.825 350.386 425.802 350.122 425.802C349.161 425.802 348.531 426.127 348.232 426.777V433H345.692V423.49H348.092L348.162 424.624C348.672 423.751 349.378 423.314 350.28 423.314C350.562 423.314 350.825 423.353 351.071 423.429L351.036 425.872ZM356.046 431.128C356.515 431.128 356.896 430.999 357.188 430.741C357.481 430.483 357.634 430.141 357.646 429.713H360.027C360.021 430.357 359.846 430.949 359.5 431.488C359.154 432.021 358.68 432.438 358.076 432.736C357.479 433.029 356.816 433.176 356.09 433.176C354.73 433.176 353.658 432.745 352.873 431.884C352.088 431.017 351.695 429.821 351.695 428.298V428.131C351.695 426.666 352.085 425.497 352.864 424.624C353.644 423.751 354.713 423.314 356.072 423.314C357.262 423.314 358.214 423.654 358.929 424.334C359.649 425.008 360.016 425.907 360.027 427.032H357.646C357.634 426.54 357.481 426.142 357.188 425.837C356.896 425.526 356.509 425.371 356.028 425.371C355.437 425.371 354.988 425.588 354.684 426.021C354.385 426.449 354.235 427.146 354.235 428.113V428.377C354.235 429.355 354.385 430.059 354.684 430.486C354.982 430.914 355.437 431.128 356.046 431.128ZM364.158 433H361.609V419.5H364.158V433ZM370.636 433.176C369.241 433.176 368.104 432.748 367.226 431.893C366.353 431.037 365.916 429.897 365.916 428.474V428.228C365.916 427.272 366.101 426.42 366.47 425.67C366.839 424.914 367.36 424.334 368.034 423.93C368.714 423.52 369.487 423.314 370.354 423.314C371.655 423.314 372.678 423.725 373.422 424.545C374.172 425.365 374.547 426.528 374.547 428.034V429.071H368.491C368.573 429.692 368.819 430.19 369.229 430.565C369.646 430.94 370.17 431.128 370.803 431.128C371.781 431.128 372.546 430.773 373.097 430.064L374.345 431.462C373.964 432.001 373.448 432.423 372.798 432.728C372.147 433.026 371.427 433.176 370.636 433.176ZM370.346 425.371C369.842 425.371 369.432 425.541 369.115 425.881C368.805 426.221 368.605 426.707 368.518 427.34H372.051V427.138C372.039 426.575 371.887 426.142 371.594 425.837C371.301 425.526 370.885 425.371 370.346 425.371ZM381.183 427.542L376.076 425.758V423.314L383.731 426.522V428.588L376.076 431.805V429.353L381.183 427.542Z" fill="#F3F6F9"/>
<rect y="301" width="200" height="50" fill="#252525"/>
<rect x="1" y="302" width="198" height="48" stroke="#90CAF9" stroke-opacity="0.5" stroke-width="2"/>
<path d="M82.0322 326.568L87.042 328.335V330.796L79.4746 327.588V325.514L87.042 322.306V324.767L82.0322 326.568ZM88.7383 327.175C88.7383 325.692 89.0693 324.512 89.7314 323.633C90.3994 322.754 91.3105 322.314 92.4648 322.314C93.3906 322.314 94.1553 322.66 94.7588 323.352V318.5H97.3076V332H95.0137L94.8906 330.989C94.2578 331.78 93.4434 332.176 92.4473 332.176C91.3281 332.176 90.4287 331.736 89.749 330.857C89.0752 329.973 88.7383 328.745 88.7383 327.175ZM91.2783 327.359C91.2783 328.25 91.4336 328.933 91.7441 329.407C92.0547 329.882 92.5059 330.119 93.0977 330.119C93.8828 330.119 94.4365 329.788 94.7588 329.126V325.373C94.4424 324.711 93.8945 324.38 93.1152 324.38C91.8906 324.38 91.2783 325.373 91.2783 327.359ZM101.957 332H99.4082V322.49H101.957V332ZM99.2588 320.029C99.2588 319.648 99.3848 319.335 99.6367 319.089C99.8945 318.843 100.243 318.72 100.683 318.72C101.116 318.72 101.462 318.843 101.72 319.089C101.978 319.335 102.106 319.648 102.106 320.029C102.106 320.416 101.975 320.732 101.711 320.979C101.453 321.225 101.11 321.348 100.683 321.348C100.255 321.348 99.9092 321.225 99.6455 320.979C99.3877 320.732 99.2588 320.416 99.2588 320.029ZM107.617 328.897L109.384 322.49H112.038L108.83 332H106.404L103.196 322.49H105.851L107.617 328.897ZM118.349 326.542L113.242 324.758V322.314L120.897 325.522V327.588L113.242 330.805V328.353L118.349 326.542Z" fill="#F3F6F9"/>
<path d="M85.2929 192.707C85.6834 193.098 86.3166 193.098 86.7071 192.707L93.0711 186.343C93.4616 185.953 93.4616 185.319 93.0711 184.929C92.6805 184.538 92.0474 184.538 91.6569 184.929L86 190.586L80.3431 184.929C79.9526 184.538 79.3195 184.538 78.9289 184.929C78.5384 185.319 78.5384 185.953 78.9289 186.343L85.2929 192.707ZM85 159V192H87V159H85Z" fill="#90CAF9"/>
<path d="M85.2929 292.707C85.6834 293.098 86.3166 293.098 86.7071 292.707L93.0711 286.343C93.4616 285.953 93.4616 285.319 93.0711 284.929C92.6805 284.538 92.0474 284.538 91.6569 284.929L86 290.586L80.3431 284.929C79.9526 284.538 79.3195 284.538 78.9289 284.929C78.5384 285.319 78.5384 285.953 78.9289 286.343L85.2929 292.707ZM85 259V292H87V259H85Z" fill="#90CAF9"/>
<path d="M85.2929 92.7071C85.6834 93.0976 86.3166 93.0976 86.7071 92.7071L93.0711 86.3431C93.4616 85.9526 93.4616 85.3195 93.0711 84.9289C92.6805 84.5384 92.0474 84.5384 91.6569 84.9289L86 90.5858L80.3431 84.9289C79.9526 84.5384 79.3195 84.5384 78.9289 84.9289C78.5384 85.3195 78.5384 85.9526 78.9289 86.3431L85.2929 92.7071ZM85 59V92H87V59H85Z" fill="#90CAF9"/>
<path d="M85.2929 392.707C85.6834 393.098 86.3166 393.098 86.7071 392.707L93.0711 386.343C93.4616 385.953 93.4616 385.319 93.0711 384.929C92.6805 384.538 92.0474 384.538 91.6569 384.929L86 390.586L80.3431 384.929C79.9526 384.538 79.3195 384.538 78.9289 384.929C78.5384 385.319 78.5384 385.953 78.9289 386.343L85.2929 392.707ZM85 359V392H87V359H85Z" fill="#90CAF9"/>
<path d="M85.2929 192.707C85.6834 193.098 86.3166 193.098 86.7071 192.707L93.0711 186.343C93.4616 185.953 93.4616 185.319 93.0711 184.929C92.6805 184.538 92.0474 184.538 91.6569 184.929L86 190.586L80.3431 184.929C79.9526 184.538 79.3195 184.538 78.9289 184.929C78.5384 185.319 78.5384 185.953 78.9289 186.343L85.2929 192.707ZM85 159V192H87V159H85Z" fill="#90CAF9"/>
<path d="M85.2929 292.707C85.6834 293.098 86.3166 293.098 86.7071 292.707L93.0711 286.343C93.4616 285.953 93.4616 285.319 93.0711 284.929C92.6805 284.538 92.0474 284.538 91.6569 284.929L86 290.586L80.3431 284.929C79.9526 284.538 79.3195 284.538 78.9289 284.929C78.5384 285.319 78.5384 285.953 78.9289 286.343L85.2929 292.707ZM85 259V292H87V259H85Z" fill="#90CAF9"/>
<path d="M85.2929 92.7071C85.6834 93.0976 86.3166 93.0976 86.7071 92.7071L93.0711 86.3431C93.4616 85.9526 93.4616 85.3195 93.0711 84.9289C92.6805 84.5384 92.0474 84.5384 91.6569 84.9289L86 90.5858L80.3431 84.9289C79.9526 84.5384 79.3195 84.5384 78.9289 84.9289C78.5384 85.3195 78.5384 85.9526 78.9289 86.3431L85.2929 92.7071ZM85 59V92H87V59H85Z" fill="#90CAF9"/>
<path d="M85.2929 392.707C85.6834 393.098 86.3166 393.098 86.7071 392.707L93.0711 386.343C93.4616 385.953 93.4616 385.319 93.0711 384.929C92.6805 384.538 92.0474 384.538 91.6569 384.929L86 390.586L80.3431 384.929C79.9526 384.538 79.3195 384.538 78.9289 384.929C78.5384 385.319 78.5384 385.953 78.9289 386.343L85.2929 392.707ZM85 359V392H87V359H85Z" fill="#90CAF9"/>
<path d="M115.707 158.293C115.317 157.902 114.683 157.902 114.293 158.293L107.929 164.657C107.538 165.047 107.538 165.681 107.929 166.071C108.319 166.462 108.953 166.462 109.343 166.071L115 160.414L120.657 166.071C121.047 166.462 121.681 166.462 122.071 166.071C122.462 165.681 122.462 165.047 122.071 164.657L115.707 158.293ZM116 192V159H114V192H116Z" fill="#DCE2C8"/>
<path d="M115.707 258.293C115.317 257.902 114.683 257.902 114.293 258.293L107.929 264.657C107.538 265.047 107.538 265.681 107.929 266.071C108.319 266.462 108.953 266.462 109.343 266.071L115 260.414L120.657 266.071C121.047 266.462 121.681 266.462 122.071 266.071C122.462 265.681 122.462 265.047 122.071 264.657L115.707 258.293ZM116 292V259H114V292H116Z" fill="#DCE2C8"/>
<path d="M115.707 58.2929C115.317 57.9024 114.683 57.9024 114.293 58.2929L107.929 64.6569C107.538 65.0474 107.538 65.6805 107.929 66.0711C108.319 66.4616 108.953 66.4616 109.343 66.0711L115 60.4142L120.657 66.0711C121.047 66.4616 121.681 66.4616 122.071 66.0711C122.462 65.6805 122.462 65.0474 122.071 64.6569L115.707 58.2929ZM116 92V59H114V92H116Z" fill="#DCE2C8"/>
<path d="M115.707 358.293C115.317 357.902 114.683 357.902 114.293 358.293L107.929 364.657C107.538 365.047 107.538 365.681 107.929 366.071C108.319 366.462 108.953 366.462 109.343 366.071L115 360.414L120.657 366.071C121.047 366.462 121.681 366.462 122.071 366.071C122.462 365.681 122.462 365.047 122.071 364.657L115.707 358.293ZM116 392V359H114V392H116Z" fill="#DCE2C8"/>
<path d="M115.707 158.293C115.317 157.902 114.683 157.902 114.293 158.293L107.929 164.657C107.538 165.047 107.538 165.681 107.929 166.071C108.319 166.462 108.953 166.462 109.343 166.071L115 160.414L120.657 166.071C121.047 166.462 121.681 166.462 122.071 166.071C122.462 165.681 122.462 165.047 122.071 164.657L115.707 158.293ZM116 192V159H114V192H116Z" fill="#DCE2C8"/>
<path d="M115.707 258.293C115.317 257.902 114.683 257.902 114.293 258.293L107.929 264.657C107.538 265.047 107.538 265.681 107.929 266.071C108.319 266.462 108.953 266.462 109.343 266.071L115 260.414L120.657 266.071C121.047 266.462 121.681 266.462 122.071 266.071C122.462 265.681 122.462 265.047 122.071 264.657L115.707 258.293ZM116 292V259H114V292H116Z" fill="#DCE2C8"/>
<path d="M115.707 58.2929C115.317 57.9024 114.683 57.9024 114.293 58.2929L107.929 64.6569C107.538 65.0474 107.538 65.6805 107.929 66.0711C108.319 66.4616 108.953 66.4616 109.343 66.0711L115 60.4142L120.657 66.0711C121.047 66.4616 121.681 66.4616 122.071 66.0711C122.462 65.6805 122.462 65.0474 122.071 64.6569L115.707 58.2929ZM116 92V59H114V92H116Z" fill="#DCE2C8"/>
<path d="M115.707 358.293C115.317 357.902 114.683 357.902 114.293 358.293L107.929 364.657C107.538 365.047 107.538 365.681 107.929 366.071C108.319 366.462 108.953 366.462 109.343 366.071L115 360.414L120.657 366.071C121.047 366.462 121.681 366.462 122.071 366.071C122.462 365.681 122.462 365.047 122.071 364.657L115.707 358.293ZM116 392V359H114V392H116Z" fill="#DCE2C8"/>
<path d="M209.613 325.078C209.104 325.292 208.864 325.878 209.078 326.387L212.563 334.685C212.777 335.194 213.363 335.434 213.872 335.22C214.382 335.006 214.621 334.42 214.407 333.911L211.309 326.535L218.685 323.437C219.194 323.223 219.434 322.637 219.22 322.128C219.006 321.618 218.42 321.379 217.911 321.593L209.613 325.078ZM352.378 383.074L210.378 325.074L209.622 326.926L351.622 384.926L352.378 383.074Z" fill="#DCE2C8"/>
<path d="M243.707 427.707C244.098 427.317 244.098 426.683 243.707 426.293L237.343 419.929C236.953 419.538 236.319 419.538 235.929 419.929C235.538 420.319 235.538 420.953 235.929 421.343L241.586 427L235.929 432.657C235.538 433.047 235.538 433.681 235.929 434.071C236.319 434.462 236.953 434.462 237.343 434.071L243.707 427.707ZM210 428H243V426H210V428Z" fill="#A8DCD1"/>
<path d="M243.707 427.707C244.098 427.317 244.098 426.683 243.707 426.293L237.343 419.929C236.953 419.538 236.319 419.538 235.929 419.929C235.538 420.319 235.538 420.953 235.929 421.343L241.586 427L235.929 432.657C235.538 433.047 235.538 433.681 235.929 434.071C236.319 434.462 236.953 434.462 237.343 434.071L243.707 427.707ZM210 428H243V426H210V428Z" fill="#A8DCD1"/>
<circle cx="360.5" cy="12.5" r="7.5" fill="#90CAF9"/>
<circle cx="360.5" cy="34.5" r="7.5" fill="#A8DCD1"/>
<circle cx="360.5" cy="56.5" r="7.5" fill="#DCE2C8"/>
<circle cx="360.5" cy="100.5" r="7.5" fill="#353535"/>
<circle cx="360.5" cy="100.5" r="7.5" stroke="black"/>
<circle cx="360.5" cy="122.5" r="7.5" fill="#904E55"/>
<circle cx="360.5" cy="122.5" r="7.5" stroke="black"/>
<circle cx="197.5" cy="403.5" r="7.5" fill="#904E55"/>
<circle cx="197.5" cy="403.5" r="7.5" stroke="black"/>
<path d="M384.477 13.8418C384.354 14.8945 383.964 15.708 383.308 16.2822C382.656 16.8519 381.788 17.1367 380.703 17.1367C379.527 17.1367 378.584 16.7152 377.873 15.8721C377.167 15.029 376.813 13.901 376.813 12.4883V11.5312C376.813 10.6061 376.978 9.79264 377.306 9.09082C377.638 8.389 378.108 7.85124 378.714 7.47754C379.32 7.09928 380.022 6.91016 380.819 6.91016C381.877 6.91016 382.724 7.20638 383.362 7.79883C384 8.38672 384.372 9.20247 384.477 10.2461H383.157C383.043 9.45312 382.795 8.87891 382.412 8.52344C382.034 8.16797 381.503 7.99023 380.819 7.99023C379.981 7.99023 379.322 8.30013 378.844 8.91992C378.37 9.53971 378.133 10.4215 378.133 11.5654V12.5293C378.133 13.6094 378.358 14.4684 378.81 15.1064C379.261 15.7445 379.892 16.0635 380.703 16.0635C381.432 16.0635 381.991 15.8994 382.378 15.5713C382.77 15.2386 383.03 14.6621 383.157 13.8418H384.477ZM387.341 10.499C387.901 9.81087 388.631 9.4668 389.528 9.4668C391.091 9.4668 391.88 10.3486 391.894 12.1123V17H390.629V12.1055C390.624 11.5723 390.501 11.1781 390.26 10.9229C390.023 10.6676 389.651 10.54 389.146 10.54C388.735 10.54 388.375 10.6494 388.065 10.8682C387.756 11.0869 387.514 11.374 387.341 11.7295V17H386.076V6.5H387.341V10.499ZM395.161 17H393.896V9.60352H395.161V17ZM393.794 7.6416C393.794 7.43652 393.855 7.26335 393.979 7.12207C394.106 6.98079 394.293 6.91016 394.539 6.91016C394.785 6.91016 394.972 6.98079 395.1 7.12207C395.227 7.26335 395.291 7.43652 395.291 7.6416C395.291 7.84668 395.227 8.01758 395.1 8.1543C394.972 8.29102 394.785 8.35938 394.539 8.35938C394.293 8.35938 394.106 8.29102 393.979 8.1543C393.855 8.01758 393.794 7.84668 393.794 7.6416ZM398.565 17H397.301V6.5H398.565V17ZM400.288 13.2402C400.288 12.1055 400.557 11.194 401.095 10.5059C401.632 9.81315 402.337 9.4668 403.207 9.4668C404.073 9.4668 404.759 9.76302 405.265 10.3555V6.5H406.529V17H405.367L405.306 16.207C404.8 16.8268 404.096 17.1367 403.193 17.1367C402.337 17.1367 401.637 16.7858 401.095 16.084C400.557 15.3822 400.288 14.4661 400.288 13.3359V13.2402ZM401.553 13.3838C401.553 14.2223 401.726 14.8786 402.072 15.3525C402.419 15.8265 402.897 16.0635 403.508 16.0635C404.31 16.0635 404.896 15.7035 405.265 14.9834V11.5859C404.886 10.8887 404.305 10.54 403.521 10.54C402.902 10.54 402.419 10.7793 402.072 11.2578C401.726 11.7363 401.553 12.445 401.553 13.3838Z" fill="white"/>
<path d="M380.088 34.5635C378.962 34.2399 378.142 33.8434 377.627 33.374C377.117 32.9001 376.861 32.3167 376.861 31.624C376.861 30.8402 377.174 30.193 377.798 29.6826C378.427 29.1676 379.243 28.9102 380.245 28.9102C380.929 28.9102 381.537 29.0423 382.07 29.3066C382.608 29.571 383.023 29.9355 383.314 30.4004C383.611 30.8652 383.759 31.3734 383.759 31.9248H382.439C382.439 31.3232 382.248 30.8516 381.865 30.5098C381.482 30.1634 380.942 29.9902 380.245 29.9902C379.598 29.9902 379.092 30.1338 378.728 30.4209C378.368 30.7035 378.188 31.0977 378.188 31.6035C378.188 32.0091 378.358 32.3532 378.7 32.6357C379.047 32.9137 379.632 33.1689 380.457 33.4014C381.286 33.6338 381.934 33.8913 382.398 34.1738C382.868 34.4518 383.214 34.7777 383.438 35.1514C383.665 35.5251 383.779 35.9648 383.779 36.4707C383.779 37.2773 383.465 37.9245 382.836 38.4121C382.207 38.8952 381.366 39.1367 380.313 39.1367C379.63 39.1367 378.992 39.0068 378.399 38.7471C377.807 38.4827 377.349 38.1227 377.025 37.667C376.706 37.2113 376.547 36.694 376.547 36.1152H377.866C377.866 36.7168 378.087 37.193 378.529 37.5439C378.976 37.8903 379.571 38.0635 380.313 38.0635C381.006 38.0635 381.537 37.9222 381.906 37.6396C382.275 37.3571 382.46 36.972 382.46 36.4844C382.46 35.9967 382.289 35.6208 381.947 35.3564C381.605 35.0876 380.986 34.8232 380.088 34.5635ZM386.644 39H385.379V31.6035H386.644V39ZM385.276 29.6416C385.276 29.4365 385.338 29.2633 385.461 29.1221C385.589 28.9808 385.775 28.9102 386.021 28.9102C386.268 28.9102 386.454 28.9808 386.582 29.1221C386.71 29.2633 386.773 29.4365 386.773 29.6416C386.773 29.8467 386.71 30.0176 386.582 30.1543C386.454 30.291 386.268 30.3594 386.021 30.3594C385.775 30.3594 385.589 30.291 385.461 30.1543C385.338 30.0176 385.276 29.8467 385.276 29.6416ZM394.936 35.3838C394.936 36.514 394.676 37.4232 394.156 38.1113C393.637 38.7949 392.939 39.1367 392.064 39.1367C391.13 39.1367 390.408 38.8063 389.897 38.1455L389.836 39H388.674V28.5H389.938V32.417C390.449 31.7835 391.153 31.4668 392.051 31.4668C392.949 31.4668 393.653 31.8063 394.163 32.4854C394.678 33.1644 394.936 34.0941 394.936 35.2744V35.3838ZM393.671 35.2402C393.671 34.3789 393.505 33.7135 393.172 33.2441C392.839 32.7747 392.361 32.54 391.736 32.54C390.902 32.54 390.303 32.9274 389.938 33.7021V36.9014C390.326 37.6761 390.93 38.0635 391.75 38.0635C392.356 38.0635 392.828 37.8288 393.165 37.3594C393.502 36.89 393.671 36.1836 393.671 35.2402ZM397.909 39H396.645V28.5H397.909V39ZM401.313 39H400.049V31.6035H401.313V39ZM399.946 29.6416C399.946 29.4365 400.008 29.2633 400.131 29.1221C400.258 28.9808 400.445 28.9102 400.691 28.9102C400.938 28.9102 401.124 28.9808 401.252 29.1221C401.38 29.2633 401.443 29.4365 401.443 29.6416C401.443 29.8467 401.38 30.0176 401.252 30.1543C401.124 30.291 400.938 30.3594 400.691 30.3594C400.445 30.3594 400.258 30.291 400.131 30.1543C400.008 30.0176 399.946 29.8467 399.946 29.6416ZM404.54 31.6035L404.581 32.5332C405.146 31.8223 405.884 31.4668 406.796 31.4668C408.359 31.4668 409.147 32.3486 409.161 34.1123V39H407.896V34.1055C407.892 33.5723 407.769 33.1781 407.527 32.9229C407.29 32.6676 406.919 32.54 406.413 32.54C406.003 32.54 405.643 32.6494 405.333 32.8682C405.023 33.0869 404.782 33.374 404.608 33.7295V39H403.344V31.6035H404.54ZM410.768 35.2402C410.768 34.0872 411.034 33.1712 411.567 32.4922C412.101 31.8086 412.807 31.4668 413.687 31.4668C414.589 31.4668 415.293 31.7858 415.799 32.4238L415.86 31.6035H417.016V38.8223C417.016 39.7793 416.731 40.5335 416.161 41.085C415.596 41.6364 414.835 41.9121 413.878 41.9121C413.345 41.9121 412.823 41.7982 412.312 41.5703C411.802 41.3424 411.412 41.0303 411.144 40.6338L411.8 39.875C412.342 40.5449 413.005 40.8799 413.789 40.8799C414.404 40.8799 414.883 40.7067 415.225 40.3604C415.571 40.014 415.744 39.5264 415.744 38.8975V38.2617C415.238 38.8451 414.548 39.1367 413.673 39.1367C412.807 39.1367 412.105 38.7881 411.567 38.0908C411.034 37.3936 410.768 36.4434 410.768 35.2402ZM412.039 35.3838C412.039 36.2178 412.21 36.874 412.552 37.3525C412.894 37.8265 413.372 38.0635 413.987 38.0635C414.785 38.0635 415.37 37.7012 415.744 36.9766V33.5996C415.357 32.8932 414.776 32.54 414.001 32.54C413.386 32.54 412.905 32.7793 412.559 33.2578C412.212 33.7363 412.039 34.445 412.039 35.3838Z" fill="white"/>
<path d="M380.806 56.9736H378.468V61H377.148V51.0469H380.443C381.564 51.0469 382.426 51.3021 383.027 51.8125C383.633 52.3229 383.937 53.0658 383.937 54.041C383.937 54.6608 383.768 55.2008 383.431 55.6611C383.098 56.1214 382.633 56.4655 382.036 56.6934L384.374 60.918V61H382.966L380.806 56.9736ZM378.468 55.9004H380.484C381.136 55.9004 381.653 55.7318 382.036 55.3945C382.424 55.0573 382.617 54.6061 382.617 54.041C382.617 53.4258 382.433 52.9541 382.063 52.626C381.699 52.2979 381.17 52.1315 380.478 52.127H378.468V55.9004ZM388.653 61.1367C387.651 61.1367 386.835 60.8086 386.206 60.1523C385.577 59.4915 385.263 58.6097 385.263 57.5068V57.2744C385.263 56.5407 385.402 55.8867 385.68 55.3125C385.962 54.7337 386.354 54.2826 386.855 53.959C387.361 53.6309 387.908 53.4668 388.496 53.4668C389.458 53.4668 390.205 53.7835 390.738 54.417C391.271 55.0505 391.538 55.9574 391.538 57.1377V57.6641H386.527C386.546 58.3932 386.757 58.9834 387.163 59.4346C387.573 59.8812 388.093 60.1045 388.722 60.1045C389.168 60.1045 389.547 60.0133 389.856 59.8311C390.166 59.6488 390.438 59.4072 390.67 59.1064L391.442 59.708C390.823 60.6605 389.893 61.1367 388.653 61.1367ZM388.496 54.5059C387.986 54.5059 387.557 54.6927 387.211 55.0664C386.865 55.4355 386.65 55.9551 386.568 56.625H390.273V56.5293C390.237 55.8867 390.064 55.39 389.754 55.0391C389.444 54.6836 389.025 54.5059 388.496 54.5059ZM394.724 51.8125V53.6035H396.104V54.5811H394.724V59.168C394.724 59.4642 394.785 59.6875 394.908 59.8379C395.031 59.9837 395.241 60.0566 395.537 60.0566C395.683 60.0566 395.883 60.0293 396.139 59.9746V61C395.806 61.0911 395.482 61.1367 395.168 61.1367C394.603 61.1367 394.177 60.9658 393.89 60.624C393.603 60.2822 393.459 59.7969 393.459 59.168V54.5811H392.112V53.6035H393.459V51.8125H394.724ZM402.154 60.2686C401.662 60.8473 400.94 61.1367 399.987 61.1367C399.199 61.1367 398.597 60.9089 398.183 60.4531C397.772 59.9928 397.565 59.3138 397.561 58.416V53.6035H398.825V58.3818C398.825 59.5029 399.281 60.0635 400.192 60.0635C401.159 60.0635 401.801 59.7035 402.12 58.9834V53.6035H403.385V61H402.182L402.154 60.2686ZM408.888 54.7383C408.696 54.7064 408.489 54.6904 408.266 54.6904C407.436 54.6904 406.873 55.0436 406.577 55.75V61H405.312V53.6035H406.543L406.563 54.458C406.978 53.7972 407.566 53.4668 408.327 53.4668C408.573 53.4668 408.76 53.4987 408.888 53.5625V54.7383ZM411.253 53.6035L411.294 54.5332C411.859 53.8223 412.597 53.4668 413.509 53.4668C415.072 53.4668 415.86 54.3486 415.874 56.1123V61H414.609V56.1055C414.605 55.5723 414.482 55.1781 414.24 54.9229C414.003 54.6676 413.632 54.54 413.126 54.54C412.716 54.54 412.356 54.6494 412.046 54.8682C411.736 55.0869 411.494 55.374 411.321 55.7295V61H410.057V53.6035H411.253Z" fill="white"/>
<path d="M384.162 74.0469V80.8145C384.158 81.7533 383.861 82.5212 383.273 83.1182C382.69 83.7152 381.897 84.0501 380.895 84.123L380.546 84.1367C379.457 84.1367 378.589 83.8428 377.941 83.2549C377.294 82.667 376.966 81.8581 376.957 80.8281V74.0469H378.256V80.7871C378.256 81.5072 378.454 82.0677 378.851 82.4688C379.247 82.8652 379.812 83.0635 380.546 83.0635C381.289 83.0635 381.856 82.8652 382.248 82.4688C382.645 82.0723 382.843 81.514 382.843 80.7939V74.0469H384.162ZM392.283 80.3838C392.283 81.5094 392.026 82.4163 391.511 83.1045C390.996 83.7926 390.299 84.1367 389.419 84.1367C388.521 84.1367 387.815 83.8519 387.3 83.2822V86.8438H386.035V76.6035H387.19L387.252 77.4238C387.767 76.7858 388.482 76.4668 389.398 76.4668C390.287 76.4668 390.989 76.8018 391.504 77.4717C392.023 78.1416 392.283 79.0736 392.283 80.2676V80.3838ZM391.019 80.2402C391.019 79.4062 390.841 78.7477 390.485 78.2646C390.13 77.7816 389.642 77.54 389.022 77.54C388.257 77.54 387.683 77.8796 387.3 78.5586V82.0928C387.678 82.7673 388.257 83.1045 389.036 83.1045C389.642 83.1045 390.123 82.8652 390.479 82.3867C390.839 81.9036 391.019 81.1882 391.019 80.2402ZM393.589 80.2402C393.589 79.1055 393.858 78.194 394.396 77.5059C394.933 76.8132 395.637 76.4668 396.508 76.4668C397.374 76.4668 398.06 76.763 398.565 77.3555V73.5H399.83V84H398.668L398.606 83.207C398.101 83.8268 397.396 84.1367 396.494 84.1367C395.637 84.1367 394.938 83.7858 394.396 83.084C393.858 82.3822 393.589 81.4661 393.589 80.3359V80.2402ZM394.854 80.3838C394.854 81.2223 395.027 81.8786 395.373 82.3525C395.719 82.8265 396.198 83.0635 396.809 83.0635C397.611 83.0635 398.196 82.7035 398.565 81.9834V78.5859C398.187 77.8887 397.606 77.54 396.822 77.54C396.202 77.54 395.719 77.7793 395.373 78.2578C395.027 78.7363 394.854 79.445 394.854 80.3838ZM406.365 84C406.292 83.8542 406.233 83.5944 406.188 83.2207C405.6 83.8314 404.898 84.1367 404.082 84.1367C403.353 84.1367 402.754 83.9316 402.284 83.5215C401.819 83.1068 401.587 82.5827 401.587 81.9492C401.587 81.179 401.879 80.582 402.462 80.1582C403.05 79.7298 403.875 79.5156 404.937 79.5156H406.167V78.9346C406.167 78.4925 406.035 78.1416 405.771 77.8818C405.506 77.6175 405.117 77.4854 404.602 77.4854C404.15 77.4854 403.772 77.5993 403.467 77.8271C403.161 78.055 403.009 78.3307 403.009 78.6543H401.737C401.737 78.2852 401.867 77.9297 402.127 77.5879C402.391 77.2415 402.747 76.9681 403.193 76.7676C403.645 76.5671 404.139 76.4668 404.677 76.4668C405.529 76.4668 406.197 76.681 406.68 77.1094C407.163 77.5332 407.413 78.1188 407.432 78.8662V82.2705C407.432 82.9495 407.518 83.4896 407.691 83.8906V84H406.365ZM404.267 83.0361C404.663 83.0361 405.039 82.9336 405.395 82.7285C405.75 82.5234 406.007 82.2568 406.167 81.9287V80.4111H405.176C403.626 80.4111 402.852 80.8646 402.852 81.7715C402.852 82.168 402.984 82.4779 403.248 82.7012C403.512 82.9245 403.852 83.0361 404.267 83.0361ZM411.13 74.8125V76.6035H412.511V77.5811H411.13V82.168C411.13 82.4642 411.191 82.6875 411.314 82.8379C411.438 82.9837 411.647 83.0566 411.943 83.0566C412.089 83.0566 412.29 83.0293 412.545 82.9746V84C412.212 84.0911 411.889 84.1367 411.574 84.1367C411.009 84.1367 410.583 83.9658 410.296 83.624C410.009 83.2822 409.865 82.7969 409.865 82.168V77.5811H408.519V76.6035H409.865V74.8125H411.13ZM417.063 84.1367C416.061 84.1367 415.245 83.8086 414.616 83.1523C413.987 82.4915 413.673 81.6097 413.673 80.5068V80.2744C413.673 79.5407 413.812 78.8867 414.09 78.3125C414.372 77.7337 414.764 77.2826 415.266 76.959C415.771 76.6309 416.318 76.4668 416.906 76.4668C417.868 76.4668 418.615 76.7835 419.148 77.417C419.682 78.0505 419.948 78.9574 419.948 80.1377V80.6641H414.938C414.956 81.3932 415.168 81.9834 415.573 82.4346C415.983 82.8812 416.503 83.1045 417.132 83.1045C417.578 83.1045 417.957 83.0133 418.267 82.8311C418.576 82.6488 418.848 82.4072 419.08 82.1064L419.853 82.708C419.233 83.6605 418.303 84.1367 417.063 84.1367ZM416.906 77.5059C416.396 77.5059 415.967 77.6927 415.621 78.0664C415.275 78.4355 415.061 78.9551 414.979 79.625H418.684V79.5293C418.647 78.8867 418.474 78.39 418.164 78.0391C417.854 77.6836 417.435 77.5059 416.906 77.5059Z" fill="white"/>
<path d="M380.806 101.974H378.468V106H377.148V96.0469H380.443C381.564 96.0469 382.426 96.3021 383.027 96.8125C383.633 97.3229 383.937 98.0658 383.937 99.041C383.937 99.6608 383.768 100.201 383.431 100.661C383.098 101.121 382.633 101.465 382.036 101.693L384.374 105.918V106H382.966L380.806 101.974ZM378.468 100.9H380.484C381.136 100.9 381.653 100.732 382.036 100.395C382.424 100.057 382.617 99.6061 382.617 99.041C382.617 98.4258 382.433 97.9541 382.063 97.626C381.699 97.2979 381.17 97.1315 380.478 97.127H378.468V100.9ZM388.653 106.137C387.651 106.137 386.835 105.809 386.206 105.152C385.577 104.492 385.263 103.61 385.263 102.507V102.274C385.263 101.541 385.402 100.887 385.68 100.312C385.962 99.7337 386.354 99.2826 386.855 98.959C387.361 98.6309 387.908 98.4668 388.496 98.4668C389.458 98.4668 390.205 98.7835 390.738 99.417C391.271 100.05 391.538 100.957 391.538 102.138V102.664H386.527C386.546 103.393 386.757 103.983 387.163 104.435C387.573 104.881 388.093 105.104 388.722 105.104C389.168 105.104 389.547 105.013 389.856 104.831C390.166 104.649 390.438 104.407 390.67 104.106L391.442 104.708C390.823 105.66 389.893 106.137 388.653 106.137ZM388.496 99.5059C387.986 99.5059 387.557 99.6927 387.211 100.066C386.865 100.436 386.65 100.955 386.568 101.625H390.273V101.529C390.237 100.887 390.064 100.39 389.754 100.039C389.444 99.6836 389.025 99.5059 388.496 99.5059ZM394.204 98.6035L394.245 99.5332C394.81 98.8223 395.549 98.4668 396.46 98.4668C398.023 98.4668 398.812 99.3486 398.825 101.112V106H397.561V101.105C397.556 100.572 397.433 100.178 397.191 99.9229C396.954 99.6676 396.583 99.54 396.077 99.54C395.667 99.54 395.307 99.6494 394.997 99.8682C394.687 100.087 394.446 100.374 394.272 100.729V106H393.008V98.6035H394.204ZM400.425 102.24C400.425 101.105 400.694 100.194 401.231 99.5059C401.769 98.8132 402.473 98.4668 403.344 98.4668C404.21 98.4668 404.896 98.763 405.401 99.3555V95.5H406.666V106H405.504L405.442 105.207C404.937 105.827 404.232 106.137 403.33 106.137C402.473 106.137 401.774 105.786 401.231 105.084C400.694 104.382 400.425 103.466 400.425 102.336V102.24ZM401.689 102.384C401.689 103.222 401.863 103.879 402.209 104.353C402.555 104.826 403.034 105.063 403.645 105.063C404.447 105.063 405.032 104.703 405.401 103.983V100.586C405.023 99.8887 404.442 99.54 403.658 99.54C403.038 99.54 402.555 99.7793 402.209 100.258C401.863 100.736 401.689 101.445 401.689 102.384ZM411.704 106.137C410.701 106.137 409.886 105.809 409.257 105.152C408.628 104.492 408.313 103.61 408.313 102.507V102.274C408.313 101.541 408.452 100.887 408.73 100.312C409.013 99.7337 409.405 99.2826 409.906 98.959C410.412 98.6309 410.959 98.4668 411.547 98.4668C412.508 98.4668 413.256 98.7835 413.789 99.417C414.322 100.05 414.589 100.957 414.589 102.138V102.664H409.578C409.596 103.393 409.808 103.983 410.214 104.435C410.624 104.881 411.144 105.104 411.772 105.104C412.219 105.104 412.597 105.013 412.907 104.831C413.217 104.649 413.488 104.407 413.721 104.106L414.493 104.708C413.873 105.66 412.944 106.137 411.704 106.137ZM411.547 99.5059C411.036 99.5059 410.608 99.6927 410.262 100.066C409.915 100.436 409.701 100.955 409.619 101.625H413.324V101.529C413.288 100.887 413.115 100.39 412.805 100.039C412.495 99.6836 412.076 99.5059 411.547 99.5059ZM419.634 99.7383C419.442 99.7064 419.235 99.6904 419.012 99.6904C418.182 99.6904 417.619 100.044 417.323 100.75V106H416.059V98.6035H417.289L417.31 99.458C417.724 98.7972 418.312 98.4668 419.073 98.4668C419.319 98.4668 419.506 98.4987 419.634 98.5625V99.7383Z" fill="white"/>
<path d="M384.477 124.842C384.354 125.895 383.964 126.708 383.308 127.282C382.656 127.852 381.788 128.137 380.703 128.137C379.527 128.137 378.584 127.715 377.873 126.872C377.167 126.029 376.813 124.901 376.813 123.488V122.531C376.813 121.606 376.978 120.793 377.306 120.091C377.638 119.389 378.108 118.851 378.714 118.478C379.32 118.099 380.022 117.91 380.819 117.91C381.877 117.91 382.724 118.206 383.362 118.799C384 119.387 384.372 120.202 384.477 121.246H383.157C383.043 120.453 382.795 119.879 382.412 119.523C382.034 119.168 381.503 118.99 380.819 118.99C379.981 118.99 379.322 119.3 378.844 119.92C378.37 120.54 378.133 121.422 378.133 122.565V123.529C378.133 124.609 378.358 125.468 378.81 126.106C379.261 126.744 379.892 127.063 380.703 127.063C381.432 127.063 381.991 126.899 382.378 126.571C382.77 126.239 383.03 125.662 383.157 124.842H384.477ZM385.741 124.233C385.741 123.509 385.882 122.857 386.165 122.278C386.452 121.7 386.849 121.253 387.354 120.938C387.865 120.624 388.446 120.467 389.098 120.467C390.105 120.467 390.918 120.815 391.538 121.513C392.162 122.21 392.475 123.137 392.475 124.295V124.384C392.475 125.104 392.336 125.751 392.058 126.325C391.784 126.895 391.39 127.339 390.875 127.658C390.365 127.977 389.777 128.137 389.111 128.137C388.109 128.137 387.295 127.788 386.671 127.091C386.051 126.394 385.741 125.471 385.741 124.322V124.233ZM387.013 124.384C387.013 125.204 387.202 125.863 387.58 126.359C387.963 126.856 388.473 127.104 389.111 127.104C389.754 127.104 390.264 126.854 390.643 126.353C391.021 125.847 391.21 125.14 391.21 124.233C391.21 123.422 391.016 122.766 390.629 122.265C390.246 121.759 389.736 121.506 389.098 121.506C388.473 121.506 387.97 121.754 387.587 122.251C387.204 122.748 387.013 123.459 387.013 124.384ZM395.257 120.604L395.298 121.533C395.863 120.822 396.601 120.467 397.513 120.467C399.076 120.467 399.864 121.349 399.878 123.112V128H398.613V123.105C398.609 122.572 398.486 122.178 398.244 121.923C398.007 121.668 397.636 121.54 397.13 121.54C396.72 121.54 396.36 121.649 396.05 121.868C395.74 122.087 395.498 122.374 395.325 122.729V128H394.061V120.604H395.257ZM406.092 126.038C406.092 125.696 405.962 125.432 405.702 125.245C405.447 125.054 404.998 124.89 404.355 124.753C403.717 124.616 403.209 124.452 402.831 124.261C402.457 124.069 402.179 123.841 401.997 123.577C401.819 123.313 401.73 122.998 401.73 122.634C401.73 122.028 401.986 121.515 402.496 121.096C403.011 120.676 403.667 120.467 404.465 120.467C405.303 120.467 405.982 120.683 406.502 121.116C407.026 121.549 407.288 122.103 407.288 122.777H406.017C406.017 122.431 405.868 122.132 405.572 121.882C405.281 121.631 404.911 121.506 404.465 121.506C404.005 121.506 403.645 121.606 403.385 121.807C403.125 122.007 402.995 122.269 402.995 122.593C402.995 122.898 403.116 123.128 403.357 123.283C403.599 123.438 404.034 123.586 404.663 123.728C405.297 123.869 405.809 124.037 406.201 124.233C406.593 124.429 406.882 124.666 407.069 124.944C407.261 125.218 407.356 125.553 407.356 125.949C407.356 126.61 407.092 127.141 406.563 127.542C406.035 127.938 405.349 128.137 404.506 128.137C403.913 128.137 403.389 128.032 402.934 127.822C402.478 127.613 402.12 127.321 401.86 126.947C401.605 126.569 401.478 126.161 401.478 125.724H402.742C402.765 126.147 402.934 126.485 403.248 126.735C403.567 126.981 403.986 127.104 404.506 127.104C404.984 127.104 405.367 127.009 405.654 126.817C405.946 126.621 406.092 126.362 406.092 126.038ZM413.57 127.269C413.078 127.847 412.356 128.137 411.403 128.137C410.615 128.137 410.013 127.909 409.599 127.453C409.188 126.993 408.981 126.314 408.977 125.416V120.604H410.241V125.382C410.241 126.503 410.697 127.063 411.608 127.063C412.575 127.063 413.217 126.703 413.536 125.983V120.604H414.801V128H413.598L413.57 127.269ZM417.918 120.604L417.952 121.424C418.494 120.786 419.226 120.467 420.146 120.467C421.181 120.467 421.885 120.863 422.259 121.656C422.505 121.301 422.824 121.014 423.216 120.795C423.612 120.576 424.079 120.467 424.617 120.467C426.24 120.467 427.064 121.326 427.092 123.044V128H425.827V123.119C425.827 122.59 425.706 122.196 425.465 121.937C425.223 121.672 424.818 121.54 424.248 121.54C423.779 121.54 423.389 121.681 423.079 121.964C422.769 122.242 422.589 122.618 422.539 123.092V128H421.268V123.153C421.268 122.078 420.741 121.54 419.688 121.54C418.859 121.54 418.292 121.893 417.986 122.6V128H416.722V120.604H417.918ZM432.075 128.137C431.073 128.137 430.257 127.809 429.628 127.152C428.999 126.492 428.685 125.61 428.685 124.507V124.274C428.685 123.541 428.824 122.887 429.102 122.312C429.384 121.734 429.776 121.283 430.277 120.959C430.783 120.631 431.33 120.467 431.918 120.467C432.88 120.467 433.627 120.784 434.16 121.417C434.693 122.05 434.96 122.957 434.96 124.138V124.664H429.949C429.967 125.393 430.179 125.983 430.585 126.435C430.995 126.881 431.515 127.104 432.144 127.104C432.59 127.104 432.968 127.013 433.278 126.831C433.588 126.649 433.859 126.407 434.092 126.106L434.864 126.708C434.244 127.66 433.315 128.137 432.075 128.137ZM431.918 121.506C431.408 121.506 430.979 121.693 430.633 122.066C430.286 122.436 430.072 122.955 429.99 123.625H433.695V123.529C433.659 122.887 433.486 122.39 433.176 122.039C432.866 121.684 432.447 121.506 431.918 121.506ZM440.005 121.738C439.813 121.706 439.606 121.69 439.383 121.69C438.553 121.69 437.991 122.044 437.694 122.75V128H436.43V120.604H437.66L437.681 121.458C438.095 120.797 438.683 120.467 439.444 120.467C439.69 120.467 439.877 120.499 440.005 120.562V121.738Z" fill="white"/>
</svg>
